<?xml version="1.0" standalone="no"?>
<!DOCTYPE svg PUBLIC "-//W3C//DTD SVG 20010904//EN"
 "http://www.w3.org/TR/2001/REC-SVG-20010904/DTD/svg10.dtd">
<svg version="1.0" xmlns="http://www.w3.org/2000/svg"
 width="1536.000000pt" height="1024.000000pt" viewBox="0 0 1536.000000 1024.000000"
 preserveAspectRatio="xMidYMid meet">

<g transform="translate(0.000000,1024.000000) scale(0.100000,-0.100000)"
fill="#000000" stroke="none">
<path d="M0 5120 l0 -5120 7680 0 7680 0 0 5120 0 5120 -7680 0 -7680 0 0
-5120z m2030 4201 c85 -21 274 -65 420 -96 146 -31 362 -79 480 -107 118 -27
303 -65 410 -83 107 -18 224 -40 260 -48 56 -13 342 -65 535 -97 33 -5 152
-19 265 -30 113 -11 216 -22 230 -25 14 -3 140 -16 280 -30 140 -14 307 -32
370 -40 63 -8 239 -24 390 -35 151 -12 361 -27 465 -35 637 -49 628 -49 1250
-49 l610 -1 3 40 c4 65 11 82 33 88 31 8 64 -30 83 -95 9 -31 16 -61 16 -67 0
-16 68 -64 84 -58 7 3 17 2 22 -3 5 -5 24 -11 42 -13 19 -3 42 -13 51 -21 22
-20 27 -20 115 6 l73 21 64 -43 c35 -23 76 -58 92 -78 26 -34 27 -34 28 -11 1
13 1 27 1 31 -1 3 5 9 13 12 8 3 15 1 15 -4 0 -6 5 -10 12 -10 6 0 18 -7 27
-14 110 -100 127 -110 151 -81 11 13 63 51 107 78 8 5 21 -5 35 -28 22 -35 25
-36 68 -30 25 3 55 7 67 8 12 1 25 5 29 10 12 12 22 8 59 -24 33 -29 37 -30
54 -15 21 19 41 20 75 5 27 -13 67 -6 88 14 7 7 25 20 41 30 24 16 28 16 33 2
4 -9 -1 -24 -10 -34 -9 -10 -16 -27 -16 -39 0 -26 -41 -55 -72 -50 -16 2 -23
9 -22 25 0 12 -3 20 -8 17 -5 -3 -25 2 -45 11 l-36 17 -31 -36 c-20 -23 -68
-54 -138 -88 -101 -50 -115 -61 -262 -205 -128 -126 -152 -154 -139 -162 12
-6 47 7 133 51 120 63 140 66 176 31 14 -14 12 -19 -17 -49 l-33 -34 26 0 c14
0 42 -7 62 -15 20 -8 36 -11 36 -6 0 5 17 15 38 21 20 7 51 23 67 35 50 37 92
55 129 55 26 0 36 5 41 20 10 31 211 210 237 210 13 0 32 7 42 15 28 21 52 19
71 -7 14 -21 14 -24 -7 -40 -13 -10 -28 -18 -35 -18 -21 0 -63 -65 -63 -98 0
-25 4 -32 20 -32 28 0 141 -61 167 -90 12 -14 23 -33 23 -42 0 -26 19 -32 40
-13 13 12 28 15 45 11 14 -3 35 -8 48 -12 16 -4 40 8 91 47 65 49 74 53 170
69 56 10 114 23 130 31 25 12 30 11 42 -6 8 -10 14 -36 14 -58 0 -38 0 -39 33
-31 17 4 43 7 57 7 14 -1 39 9 56 22 37 28 54 18 54 -32 0 -39 47 -143 65
-143 6 0 20 9 30 20 21 23 55 11 55 -20 0 -21 -27 -25 -205 -25 -69 0 -70 0
-73 -27 -3 -24 0 -28 22 -28 14 0 29 -6 33 -13 4 -8 24 -22 43 -33 19 -10 46
-27 59 -36 13 -10 37 -18 53 -18 38 0 116 -44 147 -82 22 -27 22 -30 6 -42
-20 -14 -19 -17 14 -131 28 -92 27 -127 -4 -163 -14 -17 -25 -39 -25 -50 0
-11 -16 -34 -36 -50 -32 -27 -35 -34 -29 -62 9 -42 53 -61 73 -31 7 11 42 50
76 87 68 73 84 77 138 35 21 -17 26 -32 32 -88 3 -37 20 -108 36 -158 25 -74
30 -103 28 -163 -3 -80 -12 -96 -34 -63 -22 30 -34 26 -34 -11 0 -22 -14 -53
-41 -93 -39 -55 -75 -166 -62 -188 8 -13 88 -50 112 -52 13 0 29 -8 36 -18 17
-23 61 -22 78 3 8 11 17 17 21 13 3 -4 13 3 22 15 13 19 21 21 55 16 39 -7 43
-4 97 49 31 30 82 70 112 88 173 102 281 181 346 255 38 43 85 94 105 115 20
21 33 40 30 41 -13 6 -79 94 -85 114 -10 33 29 59 148 99 l109 36 65 -20 c59
-18 68 -18 106 -5 22 9 55 16 73 17 24 2 50 20 112 80 70 66 80 80 71 97 -5
10 -10 34 -10 54 0 30 -3 35 -27 38 -23 2 -29 8 -31 35 -3 28 4 39 47 79 28
26 51 53 51 61 0 30 82 161 132 210 l53 52 240 50 c132 27 299 63 370 79 72
17 146 33 166 36 33 6 37 10 43 45 4 28 17 49 42 73 20 18 46 41 57 52 16 15
21 16 28 5 6 -10 9 -8 9 9 0 12 4 30 9 40 9 15 23 68 22 82 0 3 9 15 20 26 19
21 19 23 3 88 -15 61 -15 68 0 91 13 19 16 46 15 113 -1 67 3 97 18 132 11 25
32 86 48 135 32 102 50 135 74 135 20 0 61 -35 61 -52 0 -16 60 -1 85 21 29
27 80 51 107 51 27 -1 53 -15 94 -50 40 -33 38 -31 68 -140 13 -52 41 -154 60
-227 41 -155 50 -171 82 -165 36 7 54 -15 54 -62 0 -58 24 -90 62 -82 33 7 68
-8 68 -28 0 -7 9 -21 20 -31 24 -22 25 -47 3 -83 -23 -37 -104 -111 -117 -106
-6 2 -21 -12 -34 -31 -12 -19 -28 -35 -36 -35 -7 0 -22 -12 -32 -27 -27 -38
-65 -73 -79 -73 -7 0 -15 -7 -19 -15 -3 -8 -10 -15 -15 -15 -6 0 -8 7 -5 15 4
9 -4 25 -20 40 -14 13 -26 31 -26 40 0 8 -4 15 -10 15 -14 0 -12 -22 5 -75 16
-46 14 -65 -8 -65 -7 0 -20 -18 -30 -40 -11 -22 -35 -52 -55 -67 -21 -15 -47
-37 -60 -50 -13 -13 -32 -23 -42 -23 -14 0 -20 -7 -20 -21 0 -11 -4 -17 -10
-14 -5 3 -10 -3 -10 -14 0 -12 -5 -21 -11 -21 -7 0 -9 -12 -5 -33 5 -24 1 -41
-11 -58 -32 -42 -52 -93 -63 -153 -5 -33 -10 -60 -10 -61 0 -1 13 -16 30 -33
37 -39 39 -74 4 -99 -22 -17 -25 -24 -19 -51 3 -18 11 -32 16 -32 22 0 100
-63 116 -93 9 -18 23 -37 32 -44 15 -11 71 -10 91 2 14 9 -9 62 -36 80 -21 14
-34 45 -18 45 15 0 75 -43 84 -60 18 -34 12 -70 -15 -82 -14 -6 -25 -17 -25
-25 0 -8 -6 -13 -12 -11 -27 5 -60 -14 -53 -29 8 -22 -14 -83 -30 -83 -7 0
-15 -6 -18 -13 -2 -7 -16 -13 -31 -15 -28 -2 -36 12 -11 22 9 3 15 18 15 35 0
35 -17 51 -26 24 -15 -47 -27 -67 -32 -54 -4 11 -6 11 -13 0 -8 -12 -11 -11
-19 1 -6 10 -10 11 -10 3 0 -7 -7 -13 -15 -13 -8 0 -15 -6 -15 -14 0 -21 -19
-30 -35 -16 -18 15 -45 6 -45 -13 0 -8 -23 -22 -56 -32 -60 -19 -72 -32 -55
-63 13 -24 39 -20 70 9 13 13 21 15 20 7 0 -13 -92 -88 -107 -88 -4 0 -21 -18
-38 -39 -18 -25 -51 -50 -87 -67 -31 -15 -63 -37 -71 -49 -7 -11 -38 -33 -67
-47 -68 -34 -124 -82 -114 -98 11 -18 5 -280 -7 -304 -6 -12 -31 -48 -56 -81
-24 -33 -56 -84 -70 -112 -15 -29 -31 -53 -38 -53 -29 0 -109 54 -100 68 3 6
-2 8 -13 5 -19 -5 -19 -6 3 -48 33 -61 47 -78 81 -95 26 -13 31 -24 39 -71 7
-46 5 -68 -16 -140 -25 -84 -25 -84 -56 -81 l-32 3 2 -63 c2 -66 -40 -224 -63
-239 -6 -4 -28 -5 -48 -2 -26 4 -41 0 -50 -11 -18 -22 -8 -31 33 -28 27 2 38
-4 65 -38 29 -36 71 -127 116 -255 10 -27 31 -61 46 -75 33 -30 56 -82 70
-157 10 -51 9 -57 -12 -79 -12 -13 -29 -24 -36 -24 -20 0 -87 -36 -103 -55 -7
-8 -23 -46 -36 -83 -20 -61 -25 -67 -51 -69 -104 -5 -233 -57 -233 -92 0 -10
-14 -36 -31 -57 -41 -52 -61 -91 -63 -127 -3 -39 -32 -60 -73 -52 -51 9 -109
-13 -152 -60 -59 -64 -92 -127 -98 -190 -5 -46 -11 -59 -34 -76 -15 -11 -31
-28 -34 -39 -4 -11 -12 -20 -18 -20 -7 0 -23 -18 -37 -40 -14 -22 -30 -40 -36
-40 -12 0 -164 -147 -225 -217 -20 -24 -39 -55 -42 -70 -3 -15 -16 -44 -29
-63 -33 -50 -51 -106 -50 -158 1 -31 -6 -58 -24 -89 -27 -45 -28 -85 -4 -168
5 -16 21 -77 35 -134 42 -167 157 -398 231 -463 37 -33 63 -103 46 -120 -21
-21 -13 -53 29 -119 23 -35 77 -137 120 -228 l79 -165 6 -135 c2 -75 7 -155 9
-178 3 -32 1 -43 -9 -43 -19 0 -26 -35 -13 -69 21 -57 -50 -180 -145 -251 -64
-49 -116 -69 -88 -35 7 8 18 15 25 15 7 0 24 11 39 25 15 14 30 25 33 25 18 0
111 135 100 146 -2 3 -20 -9 -38 -26 -40 -37 -82 -63 -61 -38 11 14 7 15 -35
6 -27 -6 -56 -17 -66 -26 -21 -19 -57 -26 -57 -11 0 5 4 8 8 5 4 -2 13 4 20
14 8 13 8 21 1 26 -6 3 -19 25 -29 49 -23 53 -92 119 -145 140 -32 13 -46 27
-71 73 -17 31 -34 70 -38 85 -6 25 -10 27 -40 22 -30 -6 -37 -3 -60 28 -14 18
-26 41 -26 50 0 22 -81 145 -118 181 -51 47 -50 90 1 109 18 7 24 27 7 27 -5
0 -10 -5 -10 -11 0 -6 -9 -8 -21 -4 -12 4 -28 8 -35 9 -34 5 -36 22 -14 152
25 149 24 193 -4 252 -17 37 -24 42 -52 42 -33 0 -68 24 -62 42 5 15 -45 63
-81 78 -18 7 -31 20 -31 30 0 25 -83 114 -124 134 -24 11 -47 14 -75 10 -47
-7 -66 -25 -58 -55 4 -15 -1 -22 -16 -28 -12 -5 -27 -6 -33 -4 -7 2 -39 -16
-72 -41 -41 -31 -70 -46 -90 -46 -34 0 -87 39 -97 71 -4 11 -12 18 -18 16 -7
-2 -28 8 -47 23 -67 52 -149 81 -270 95 -58 7 -202 -13 -282 -39 -24 -8 -63
-17 -87 -20 l-44 -7 6 31 c6 26 3 31 -19 36 -30 8 -47 -10 -39 -42 7 -30 -3
-34 -34 -16 -28 16 -67 10 -56 -8 3 -5 -2 -10 -12 -10 -11 0 -23 -4 -29 -10
-6 -6 -22 -1 -45 14 -33 23 -39 24 -74 12 -22 -8 -32 -15 -24 -18 26 -9 1 -20
-30 -13 -36 8 -61 29 -61 52 0 12 8 14 44 9 26 -4 53 -2 68 5 21 9 33 8 61 -6
27 -13 43 -15 64 -8 24 8 28 16 31 52 2 24 -4 104 -12 179 -31 272 -31 400 3
1142 4 91 6 173 3 183 -5 18 -14 19 -161 13 -425 -17 -421 -16 -421 -37 0 -10
-9 -24 -20 -31 -11 -7 -20 -18 -20 -25 0 -7 -4 -13 -8 -13 -5 0 -7 -23 -6 -50
2 -28 0 -49 -5 -46 -4 3 -7 -5 -7 -17 1 -15 -5 -22 -17 -22 -12 0 -24 -13 -32
-33 -8 -17 -19 -32 -26 -32 -6 0 -9 -6 -6 -14 3 -8 -3 -22 -14 -32 -11 -10
-18 -26 -16 -36 3 -10 1 -16 -4 -12 -5 3 -9 -8 -9 -25 0 -16 -4 -33 -10 -36
-12 -8 -11 -72 2 -108 8 -20 7 -31 -2 -42 -10 -12 -10 -15 0 -15 9 0 10 -10 6
-36 -4 -19 -3 -41 2 -47 17 -21 19 -51 5 -80 -13 -26 -13 -30 3 -41 11 -8 14
-18 9 -26 -5 -9 -4 -11 3 -6 8 5 12 0 12 -13 0 -11 -5 -23 -10 -26 -6 -3 -7
-17 -4 -31 4 -14 2 -24 -5 -24 -6 0 -11 -9 -11 -19 0 -11 -5 -23 -10 -26 -6
-4 -8 -15 -5 -26 4 -10 2 -19 -4 -19 -6 0 -8 -7 -5 -15 4 -9 -3 -22 -16 -33
-13 -11 -23 -33 -27 -60 -3 -23 -10 -42 -15 -42 -5 0 -7 -4 -4 -9 3 -5 -1 -29
-10 -54 -8 -25 -14 -60 -12 -79 l3 -33 250 -2 c272 -2 258 2 229 -60 -15 -32
-14 -34 26 -92 22 -33 45 -72 50 -86 9 -24 13 -26 60 -22 37 4 48 2 42 -7 -4
-6 -7 -48 -7 -94 1 -45 -2 -85 -7 -88 -12 -8 -49 26 -42 37 3 5 1 9 -4 9 -6 0
-13 11 -16 25 -9 36 -21 31 -22 -10 0 -28 2 -32 13 -24 10 9 13 8 13 -4 0 -8
-10 -21 -21 -29 -19 -12 -21 -18 -12 -43 7 -22 18 -31 42 -36 18 -4 38 -12 44
-18 6 -6 21 -11 33 -11 13 0 29 -9 37 -20 9 -13 20 -18 30 -14 15 5 15 2 6
-25 -6 -16 -19 -33 -30 -36 -10 -4 -19 -11 -19 -16 0 -22 -66 4 -99 37 -21 22
-39 33 -49 29 -17 -6 -52 21 -52 42 0 17 -15 17 -30 -2 -7 -8 -9 -15 -5 -15
11 0 -35 -43 -67 -64 -31 -20 -50 -14 -41 12 6 16 5 16 -13 0 -12 -11 -24 -14
-33 -8 -8 4 -21 6 -30 4 -14 -4 -14 -3 1 7 15 12 15 14 0 25 -14 10 -14 14 -3
28 17 20 41 4 41 -27 0 -16 3 -18 11 -10 6 6 18 9 25 6 8 -3 14 1 14 9 0 30
25 68 42 62 21 -6 33 12 13 20 -22 8 -18 22 7 23 27 2 84 -32 98 -58 11 -20
50 -27 50 -9 0 6 -4 10 -9 10 -26 0 -41 34 -41 93 0 64 -21 114 -42 101 -6 -4
-13 -1 -17 5 -6 9 -15 9 -35 1 -43 -16 -101 -12 -127 9 -21 17 -22 21 -10 50
8 19 23 34 38 37 13 4 28 15 34 25 10 19 35 26 41 10 2 -4 23 -19 47 -32 25
-14 47 -31 49 -38 3 -8 0 -11 -7 -7 -15 9 -14 -15 2 -35 18 -23 47 -20 47 5
-1 51 -21 98 -64 151 -51 62 -53 72 -31 115 l16 30 -250 0 c-190 0 -250 3
-253 13 -9 23 1 122 12 125 8 3 8 8 0 17 -8 9 -5 22 9 46 11 19 25 53 32 77 7
23 15 42 19 42 4 0 8 12 8 27 -1 15 4 29 10 31 5 1 8 11 5 21 -3 10 0 22 6 25
6 4 11 18 11 31 0 30 10 56 19 50 4 -2 8 2 8 10 0 8 -5 13 -11 12 -5 -1 -11 5
-11 13 -1 8 -5 27 -9 43 -5 16 -4 32 2 40 6 7 6 21 1 35 l-9 23 -247 -6 c-137
-3 -317 -8 -400 -11 l-153 -6 -2 -142 c-2 -180 -2 -175 26 -197 24 -19 54
-118 42 -137 -3 -5 8 -21 24 -37 29 -28 61 -107 62 -155 1 -15 -13 -57 -31
-93 -32 -69 -39 -114 -21 -147 12 -23 -2 -94 -31 -155 -10 -22 -15 -41 -10
-43 5 -2 36 4 69 12 88 23 120 20 253 -24 l122 -41 23 22 c13 12 24 33 26 48
3 24 9 27 68 38 l65 12 32 -37 c18 -20 32 -40 33 -44 0 -5 9 -8 21 -8 21 0 52
-24 43 -33 -3 -3 3 -10 14 -16 11 -6 22 -8 25 -4 4 3 9 -13 13 -36 7 -43 15
-48 58 -31 27 10 56 4 56 -12 0 -5 -10 -6 -22 -2 -23 7 -23 6 -4 -15 11 -11
16 -24 13 -28 -10 -9 -69 -6 -76 5 -3 5 -19 15 -36 23 -18 8 -30 23 -31 34 -1
11 -2 25 -4 30 -1 6 -2 13 -1 17 0 4 -5 5 -13 2 -8 -3 -17 -1 -20 5 -4 6 -13
8 -20 5 -7 -3 -16 2 -19 10 -4 9 -16 16 -29 16 -17 0 -19 3 -10 12 14 14 16
28 2 28 -5 0 -16 -13 -25 -29 -22 -44 -51 -49 -86 -15 l-29 28 -29 -29 c-30
-27 -30 -28 -65 -11 -18 9 -41 16 -49 16 -9 0 -53 14 -99 31 -97 36 -117 35
-277 -11 -141 -40 -247 -93 -272 -135 -11 -18 -34 -39 -52 -46 -18 -7 -53 -29
-79 -49 -39 -29 -117 -72 -265 -144 -12 -6 -54 -40 -95 -75 -136 -121 -193
-184 -228 -254 l-33 -67 6 -118 c3 -64 13 -141 22 -171 9 -30 20 -77 25 -104
7 -46 5 -52 -18 -74 -18 -16 -37 -23 -66 -23 -35 0 -44 5 -57 29 -18 31 -45
39 -99 31 -42 -7 -137 24 -230 74 -36 20 -75 36 -87 36 -31 0 -63 34 -63 66 0
14 -8 38 -19 52 -10 15 -35 61 -55 102 -27 57 -36 87 -36 128 0 51 -2 55 -46
95 -45 40 -80 99 -70 116 3 4 -21 34 -54 65 -51 49 -60 64 -66 104 -3 26 -12
58 -20 72 -29 55 -67 146 -67 158 0 8 -25 35 -54 60 -30 26 -74 75 -98 108
l-44 61 -93 8 c-51 4 -105 13 -120 21 -38 20 -58 18 -101 -11 -25 -17 -49 -49
-72 -93 -19 -37 -54 -89 -79 -117 l-44 -50 -37 20 c-20 10 -56 36 -80 57 -24
21 -68 49 -98 63 -33 14 -66 38 -82 59 -15 20 -35 36 -45 36 -17 0 -54 42 -80
89 -7 14 -14 60 -16 103 -2 62 -8 89 -28 125 -14 25 -26 52 -26 59 0 7 -9 18
-20 24 -11 6 -31 22 -46 35 -15 14 -33 25 -41 25 -7 0 -35 30 -63 68 -27 37
-72 85 -101 107 -75 57 -79 62 -79 105 0 44 18 38 -175 64 -248 34 -284 38
-294 31 -6 -3 -11 -39 -11 -79 0 -48 -4 -77 -13 -84 -10 -8 -65 -3 -203 18
-727 111 -663 98 -734 140 -100 57 -601 336 -725 403 -136 73 -150 85 -150
137 0 22 -2 40 -6 40 -3 0 -124 13 -270 29 -145 16 -286 31 -313 34 -69 7 -77
21 -71 124 5 96 -3 120 -74 208 -22 28 -58 73 -81 102 -23 30 -49 53 -62 55
-16 2 -27 15 -38 43 -22 59 -28 65 -62 65 -46 0 -82 27 -123 95 -33 54 -46 66
-105 94 -49 24 -73 31 -93 26 -19 -5 -33 -2 -45 8 -9 8 -27 18 -39 21 -22 7
-54 47 -64 81 -4 12 2 34 14 54 12 20 20 49 19 68 -2 21 2 33 10 33 7 0 1 8
-14 17 -30 19 -45 51 -47 101 -1 19 -10 50 -21 70 -43 84 -73 152 -68 158 10
9 -19 88 -46 128 -20 30 -26 51 -26 94 0 49 3 57 35 86 26 24 35 41 35 63 0
28 -5 33 -42 46 -24 7 -43 18 -44 23 0 5 -6 22 -12 37 -23 55 -24 100 -4 145
28 62 20 96 -33 148 -44 43 -45 45 -43 101 1 53 -4 69 -59 182 -56 113 -60
125 -48 148 8 16 11 45 8 77 -4 44 -1 56 21 85 30 40 36 118 13 161 -8 14 -28
51 -45 83 -18 31 -35 74 -38 96 -6 36 -3 42 47 97 29 33 59 60 66 62 7 2 13
17 13 36 0 18 13 52 30 79 16 26 30 55 30 65 0 9 4 24 9 31 6 9 6 22 0 33 -6
10 -6 39 -1 72 8 50 7 59 -15 89 l-24 34 22 64 c13 37 22 87 22 119 0 37 5 63
17 80 49 69 138 237 180 339 26 64 76 181 110 261 105 243 143 369 146 477 3
98 10 125 26 102 7 -10 8 -4 4 19 -4 24 -2 34 10 39 14 5 15 18 10 84 -4 45
-2 111 4 156 9 66 9 85 -4 122 -29 81 -14 163 32 169 16 2 39 -13 80 -51 68
-65 69 -65 200 -111 104 -36 126 -38 115 -11 -3 9 1 15 9 15 7 0 19 10 27 23
10 17 11 19 0 10 -18 -18 -38 -16 -46 4 -4 9 -18 28 -32 41 l-26 23 33 -6 c27
-6 38 -3 53 14 23 24 23 36 5 89 -8 22 -12 42 -10 45 7 7 81 -9 254 -52z
m12240 -1711 c0 -5 -8 -10 -17 -10 -15 0 -16 2 -3 10 19 12 20 12 20 0z m132
-762 c-7 -7 -12 -8 -12 -2 0 14 12 26 19 19 2 -3 -1 -11 -7 -17z m32 -78 c14
-28 13 -31 -6 -41 -11 -6 -26 -8 -33 -5 -8 3 -28 1 -46 -4 -20 -6 -38 -6 -48
0 -14 8 -14 10 -1 11 8 1 21 1 28 0 6 -1 12 3 12 9 0 5 7 10 15 10 8 0 15 7
15 15 0 22 18 18 25 -5 6 -20 16 -25 28 -13 4 3 -1 11 -10 18 -9 7 -13 17 -9
23 10 17 13 15 30 -18z m-13221 -2544 c21 -8 46 -12 56 -9 29 7 36 -16 11 -39
-18 -17 -26 -19 -46 -9 -14 6 -23 15 -19 20 10 17 -18 24 -30 8 -7 -10 -17
-17 -23 -17 -16 0 -52 41 -46 52 8 12 53 9 97 -6z m53 -321 c-21 -16 -36 -11
-36 10 0 16 31 25 45 13 6 -6 3 -14 -9 -23z m332 -4 c9 -27 8 -30 -14 -35 -16
-4 -30 -1 -40 9 -9 8 -20 15 -25 15 -5 0 -9 5 -9 10 0 17 48 11 59 -7 6 -10
11 -13 11 -6 0 6 -5 15 -10 18 -11 7 -4 25 10 25 4 0 13 -13 18 -29z m-51
-220 c-18 -7 -47 43 -47 80 0 59 13 54 36 -13 13 -38 17 -65 11 -67z m8291
-1486 c2 -17 7 -34 11 -40 4 -5 8 -26 10 -45 3 -55 -21 -21 -40 56 -14 59 -14
65 0 62 9 -2 17 -16 19 -33z m2396 -1590 c4 -10 -13 -23 -61 -45 -74 -35 -126
-33 -59 2 22 11 44 22 50 23 38 10 56 18 56 26 0 14 7 11 14 -6z"/>
<path d="M1808 9330 c6 -8 12 -22 12 -32 0 -10 5 -27 12 -37 9 -16 6 -23 -23
-51 l-34 -32 32 21 c37 25 47 26 39 6 -3 -8 -1 -15 5 -15 6 0 8 -7 5 -17 -4
-9 -2 -20 5 -24 8 -4 8 -12 1 -25 -7 -12 -6 -31 3 -62 15 -47 12 -67 -11 -76
-8 -3 -14 -19 -14 -35 0 -18 -7 -34 -17 -40 -15 -8 -16 -13 -5 -31 14 -24 1
-60 -23 -60 -8 0 -12 -6 -9 -14 7 -18 -43 -31 -62 -15 -11 9 -14 8 -14 -5 0
-17 -48 -46 -77 -46 -29 0 -47 16 -39 35 6 16 8 16 24 3 25 -21 49 -11 61 24
14 41 14 41 -8 35 -12 -3 -27 4 -40 19 -26 30 -26 34 -1 34 11 0 20 -4 20 -10
0 -5 7 -7 15 -4 9 4 15 0 15 -10 0 -22 16 -20 33 5 10 13 16 16 19 8 5 -15 48
-23 48 -9 0 6 -6 10 -12 10 -9 0 -8 3 2 10 13 8 13 11 -1 26 -15 15 -19 15
-44 -2 -35 -23 -77 -25 -73 -4 2 8 13 16 24 18 15 2 27 17 39 48 10 26 23 44
32 44 9 0 13 3 10 6 -3 4 -1 16 5 27 8 16 8 19 -4 14 -8 -3 -32 3 -54 12 -21
10 -77 31 -124 47 -73 25 -94 38 -150 92 -53 52 -66 60 -73 46 -12 -22 -10
-135 3 -148 13 -13 13 -78 0 -146 -12 -64 3 -134 34 -156 21 -15 21 -15 1 -30
-19 -15 -22 -44 -5 -54 5 -3 6 -17 3 -32 -4 -20 -13 -29 -34 -33 -16 -4 -34
-16 -40 -27 -9 -16 -7 -20 10 -25 11 -3 17 -11 15 -18 -3 -8 7 -15 27 -19 37
-7 119 -46 119 -56 0 -4 14 -25 31 -46 28 -36 31 -43 25 -92 -7 -63 10 -111
48 -131 22 -12 41 -13 121 -2 104 14 129 8 189 -44 17 -14 36 -23 43 -21 39
15 112 17 137 4 21 -11 43 -12 99 -5 40 5 113 6 163 3 74 -4 389 -53 532 -82
31 -6 32 -6 34 32 1 22 1 54 0 73 -1 19 11 98 27 175 76 362 103 488 125 576
14 52 24 96 22 97 -4 4 -349 82 -611 138 -143 31 -345 77 -449 102 -138 34
-191 43 -194 34 -3 -9 -8 -9 -20 1 -14 10 -15 10 -4 -2z"/>
<path d="M1810 9139 c0 -5 5 -7 10 -4 6 3 10 8 10 11 0 2 -4 4 -10 4 -5 0 -10
-5 -10 -11z"/>
<path d="M1815 9112 c-5 -4 -17 -16 -25 -26 -14 -18 -14 -19 6 -8 12 6 24 8
28 5 3 -3 6 3 6 15 0 24 -1 25 -15 14z"/>
<path d="M1810 9063 c0 -5 5 -15 10 -23 8 -12 10 -11 10 8 0 12 -4 22 -10 22
-5 0 -10 -3 -10 -7z"/>
<path d="M3110 9048 c0 -3 -9 -40 -20 -84 -11 -43 -48 -209 -81 -369 -33 -159
-64 -307 -70 -328 -5 -20 -7 -43 -2 -50 4 -6 6 -48 4 -93 -3 -84 9 -125 43
-153 25 -21 19 -52 -27 -122 -23 -36 -47 -75 -54 -85 -7 -10 -21 -38 -32 -61
-11 -24 -26 -43 -34 -43 -15 0 -77 -92 -77 -114 0 -7 8 -24 19 -37 34 -44 34
-64 2 -126 -35 -70 -165 -623 -147 -628 64 -16 792 -153 961 -180 121 -19 270
-44 330 -54 61 -11 113 -17 116 -13 3 4 11 39 18 77 6 39 20 121 31 184 11 63
33 211 50 329 29 214 29 215 9 240 -10 14 -19 31 -19 38 0 21 -16 17 -32 -7
-15 -24 -62 -29 -132 -14 -26 5 -51 4 -74 -5 -28 -10 -36 -10 -42 1 -7 10 -19
10 -65 0 -31 -7 -59 -10 -62 -7 -4 3 -9 36 -12 74 l-6 67 -40 5 -40 5 0 50
c-1 29 -10 70 -23 99 -12 27 -22 66 -22 86 0 21 -3 45 -6 54 -8 22 -40 20 -64
-4 -25 -25 -42 -25 -63 -2 -22 24 -21 40 1 77 14 23 17 44 14 95 -4 61 -2 70
32 125 20 33 36 65 36 71 0 6 -20 25 -44 42 -44 32 -89 96 -101 144 -4 14 -24
47 -46 73 -56 68 -61 79 -65 161 -2 40 -9 85 -14 99 -15 40 -12 110 10 230 11
60 20 112 20 116 0 3 -35 12 -77 19 -42 6 -83 14 -90 17 -7 3 -13 3 -13 1z"/>
<path d="M3290 8865 c-23 -140 -23 -148 -7 -193 10 -26 17 -73 17 -105 0 -64
7 -82 57 -143 18 -23 38 -56 45 -75 27 -77 106 -169 145 -169 23 0 14 -43 -21
-100 -43 -70 -50 -98 -37 -146 9 -33 8 -45 -9 -77 -32 -61 -21 -89 22 -50 17
15 72 23 83 11 3 -3 11 -38 19 -79 7 -41 20 -87 28 -104 24 -46 31 -92 17
-101 -8 -5 1 -11 26 -19 47 -13 65 -41 65 -103 l0 -43 38 7 c20 4 44 10 53 15
11 6 21 4 29 -6 9 -11 17 -12 32 -4 12 7 36 8 57 4 85 -15 110 -13 135 12 32
31 56 27 70 -14 18 -53 23 -47 31 31 4 42 11 78 15 81 5 3 105 -6 222 -19 698
-82 1422 -147 1438 -130 8 10 23 154 40 399 6 83 24 325 40 539 16 214 28 392
25 394 -2 3 -136 15 -297 28 -161 12 -354 30 -428 39 -74 8 -200 22 -280 30
-454 47 -634 66 -710 76 -136 16 -478 75 -692 119 -108 22 -207 40 -220 40
-23 0 -25 -6 -48 -145z"/>
<path d="M14261 8964 c-19 -9 -48 -26 -66 -40 -45 -34 -86 -32 -117 6 -20 24
-27 28 -36 17 -6 -7 -33 -77 -61 -155 -47 -135 -49 -146 -44 -217 5 -60 3 -79
-12 -101 -13 -20 -15 -37 -10 -73 4 -25 11 -54 16 -63 7 -12 5 -27 -5 -46 -33
-65 -56 -147 -50 -181 7 -36 3 -37 -50 -15 -14 5 -17 4 -12 -4 4 -7 3 -12 -3
-12 -10 0 67 -229 148 -442 23 -59 41 -117 41 -130 0 -40 23 -77 54 -88 35
-12 39 -8 56 45 7 22 17 46 22 52 6 7 10 40 10 73 0 63 9 80 34 59 20 -16 25
-8 32 46 3 34 8 45 19 41 8 -3 25 6 39 20 18 17 32 23 46 18 11 -3 31 -3 45 1
l26 6 -23 24 c-23 25 -19 50 9 42 13 -3 15 3 13 39 -7 78 37 111 75 58 l19
-26 37 22 c20 12 37 24 37 27 0 2 -5 1 -11 -3 -14 -8 -29 14 -22 32 7 18 71
30 86 15 12 -12 2 -15 -38 -12 -18 1 -18 0 -4 -11 9 -7 14 -19 11 -27 -3 -8 0
-11 7 -7 6 4 11 14 11 22 0 8 8 14 18 14 10 0 26 14 35 30 10 17 26 30 35 30
18 0 41 20 92 81 28 35 40 69 22 69 -4 0 -16 14 -25 30 -15 25 -21 28 -38 20
-13 -7 -25 -7 -38 0 -39 21 -51 41 -51 89 0 56 -4 63 -36 51 -17 -7 -27 -5
-38 5 -8 8 -19 15 -24 15 -5 0 -10 10 -10 23 0 22 -35 165 -90 366 l-28 104
-55 38 c-29 22 -56 39 -59 38 -3 0 -20 -7 -39 -15z"/>
<path d="M1727 8836 c-4 -10 -5 -21 -2 -24 9 -9 17 6 13 25 -3 17 -4 17 -11
-1z"/>
<path d="M1345 8730 c3 -5 8 -10 11 -10 2 0 4 5 4 10 0 6 -5 10 -11 10 -5 0
-7 -4 -4 -10z"/>
<path d="M8025 8686 c0 -30 -3 -57 -6 -60 -3 -4 -112 -9 -242 -13 -131 -3
-237 -8 -237 -10 0 -2 6 -19 14 -37 10 -25 13 -61 9 -137 -5 -100 -4 -107 27
-184 31 -75 33 -88 35 -215 1 -74 5 -148 8 -165 4 -16 9 -46 12 -65 2 -19 14
-61 25 -92 15 -44 18 -70 13 -117 -4 -39 -10 -61 -18 -61 -7 0 -20 -20 -28
-45 l-16 -44 50 -45 50 -45 -3 -312 -3 -311 505 7 c356 5 535 11 607 21 73 11
108 12 122 4 29 -15 31 -13 31 26 0 61 -68 144 -118 144 -23 0 -43 22 -71 78
-18 35 -26 42 -50 42 -18 0 -46 14 -78 40 -38 30 -53 50 -64 87 -12 39 -17
121 -8 143 1 3 1 8 1 11 -1 4 3 21 8 39 8 29 6 35 -20 58 -54 47 -34 99 70
181 35 28 44 41 42 61 -2 13 -1 57 3 96 l7 72 61 48 c34 27 123 107 197 179
111 109 148 138 211 168 41 20 85 47 97 60 20 21 20 23 2 45 -17 20 -23 22
-62 12 -97 -22 -168 -6 -168 39 0 7 -29 -8 -65 -33 -36 -25 -76 -46 -88 -46
-20 0 -71 35 -126 87 -28 26 -37 23 -46 -17 -4 -17 -8 -30 -11 -30 -2 0 -21
19 -42 42 -67 75 -130 118 -171 118 -20 0 -41 -4 -47 -9 -5 -4 -24 -13 -42
-19 -27 -9 -41 -8 -70 5 -66 29 -107 43 -129 43 -38 0 -91 56 -108 113 -32
106 -70 130 -70 43z"/>
<path d="M1350 8699 c0 -5 5 -7 10 -4 6 3 10 8 10 11 0 2 -4 4 -10 4 -5 0 -10
-5 -10 -11z"/>
<path d="M5996 8658 c-3 -13 -7 -63 -11 -113 -6 -102 -51 -690 -61 -806 l-7
-76 89 -6 c111 -8 535 -33 794 -47 107 -5 345 -13 529 -17 l334 -6 -5 54 c-2
30 -12 70 -22 89 -21 43 -36 162 -36 300 0 103 -8 141 -47 241 -15 37 -17 65
-13 148 4 80 1 112 -11 144 l-17 42 -263 7 c-430 12 -875 35 -1186 63 -59 5
-63 4 -67 -17z"/>
<path d="M1328 8543 c-8 -10 -36 -83 -63 -163 -26 -80 -85 -230 -130 -335 -45
-104 -91 -215 -103 -245 -21 -56 -83 -172 -145 -270 -28 -44 -33 -59 -26 -78
7 -17 2 -44 -16 -98 -30 -90 -30 -96 -5 -119 11 -10 20 -24 20 -31 0 -7 29
-19 73 -29 39 -9 101 -24 137 -35 36 -10 153 -42 260 -70 107 -29 276 -75 375
-102 157 -43 886 -211 891 -205 1 1 32 132 68 291 44 195 74 303 91 333 30 55
32 84 5 108 -11 10 -20 31 -20 48 0 37 55 134 80 142 11 4 20 10 20 14 0 7 21
43 122 208 l19 31 -29 34 c-16 18 -33 47 -36 65 -4 18 -15 34 -24 37 -25 7
-216 42 -367 67 -128 21 -307 27 -387 14 -24 -4 -48 -2 -67 8 -22 11 -41 12
-73 6 -70 -13 -82 -11 -131 27 -51 39 -49 39 -187 29 -78 -7 -87 -5 -113 15
-42 34 -59 83 -46 135 11 44 1 85 -21 85 -6 0 -10 6 -10 14 0 7 -15 20 -32 27
-18 7 -39 19 -46 26 -7 7 -21 13 -31 13 -9 0 -22 5 -27 10 -7 7 -15 5 -26 -7z"/>
<path d="M9505 8330 c-10 -11 -14 -20 -9 -20 5 0 15 9 22 20 7 11 11 20 9 20
-2 0 -12 -9 -22 -20z"/>
<path d="M9742 8160 c-18 -11 -41 -20 -52 -20 -23 0 -161 -124 -227 -204 -16
-19 -31 -26 -57 -26 -24 0 -55 -13 -97 -40 -34 -22 -72 -40 -85 -40 -32 0 -37
-15 -10 -30 13 -7 30 -23 37 -36 9 -18 21 -24 48 -24 48 0 162 -31 233 -63 31
-14 66 -23 78 -20 11 3 26 1 33 -5 7 -6 23 -9 34 -6 14 4 28 -1 39 -15 10 -12
29 -21 41 -21 25 0 62 -35 68 -65 2 -11 11 -49 20 -85 10 -36 17 -80 18 -97 0
-18 2 -33 3 -33 5 0 41 77 47 102 4 14 18 40 32 56 13 16 30 56 37 88 l13 59
40 -4 c22 -1 48 -7 57 -12 12 -7 23 -4 37 8 11 9 18 20 16 23 -3 4 6 17 19 29
15 14 26 19 30 12 5 -7 17 -3 36 10 18 14 37 20 52 16 13 -3 31 0 42 9 11 8
26 14 35 14 8 0 22 7 32 16 16 14 22 13 76 -14 57 -28 58 -29 77 -9 15 16 27
18 70 13 91 -10 110 9 69 69 -7 11 -13 29 -13 41 0 12 -3 30 -6 39 -6 14 -8
14 -26 -2 -12 -10 -37 -18 -62 -19 -23 -1 -51 -4 -62 -8 -30 -9 -46 8 -51 58
-5 39 -9 46 -22 40 -28 -12 -84 -24 -144 -30 -56 -5 -89 -23 -222 -119 -9 -6
-22 -5 -37 2 -43 22 -65 24 -78 8 -22 -26 -48 -17 -69 23 -23 45 -31 52 -92
85 -76 40 -97 42 -120 12 -22 -27 -54 -33 -62 -12 -3 8 8 35 24 61 16 26 27
51 24 56 -6 10 78 91 107 102 11 4 16 12 13 18 -8 13 -4 13 -43 -10z"/>
<path d="M13746 8036 c-9 -14 -16 -35 -16 -46 0 -12 -4 -30 -10 -40 -7 -14 -3
-34 20 -81 36 -77 32 -101 -25 -151 -32 -29 -41 -43 -38 -61 3 -13 0 -48 -6
-78 -30 -149 -40 -235 -31 -274 5 -22 10 -73 10 -113 0 -65 2 -73 18 -68 9 3
70 17 135 31 226 51 283 97 262 213 -5 25 -11 32 -30 32 -30 0 -69 52 -61 82
5 22 -14 88 -54 188 -12 30 -48 129 -80 220 -32 90 -62 166 -67 167 -6 2 -18
-8 -27 -21z"/>
<path d="M8980 7900 c-133 -72 -159 -82 -196 -68 -55 19 -64 1 -65 -136 -1
-57 -4 -72 -22 -87 -12 -11 -43 -38 -69 -60 -49 -42 -62 -80 -34 -96 31 -19
36 -49 25 -150 -9 -84 -8 -103 5 -135 9 -21 22 -38 29 -38 7 0 26 -13 42 -30
18 -19 39 -30 56 -30 32 0 41 -8 73 -70 18 -36 28 -45 49 -45 18 -1 42 -16 72
-45 49 -48 53 -57 59 -116 3 -21 14 -64 26 -94 15 -41 20 -67 15 -102 -4 -31
0 -59 10 -86 14 -35 21 -40 56 -45 22 -3 49 -13 60 -23 18 -16 40 -16 356 -5
186 7 342 16 347 21 12 12 2 95 -23 179 l-22 74 22 55 c20 49 27 111 15 131
-9 14 15 96 35 117 15 16 18 29 13 66 -5 32 -2 54 11 77 9 18 14 35 11 39 -7
6 -67 -35 -79 -55 -10 -16 -39 -17 -55 -1 -23 23 -13 66 23 104 32 33 48 63
26 50 -12 -8 -22 34 -14 62 3 12 0 29 -8 38 -7 8 -13 30 -15 47 -4 57 -17 112
-28 119 -6 4 -23 8 -39 8 -19 0 -31 7 -38 24 -9 19 -22 25 -78 34 -36 5 -94
22 -129 37 -57 24 -121 40 -234 59 -24 4 -39 13 -43 26 -8 25 -104 70 -148 70
-48 0 -55 29 -16 71 16 17 29 33 29 35 0 14 -64 -1 -110 -26z"/>
<path d="M13570 7910 c-183 -40 -289 -66 -295 -72 -4 -4 -2 -37 4 -74 8 -51
16 -73 32 -85 17 -12 21 -23 16 -45 -6 -31 27 -182 49 -226 8 -15 23 -32 33
-38 24 -13 37 -52 51 -163 6 -48 14 -94 17 -103 6 -16 32 -15 117 7 l38 10 -6
82 c-3 45 -9 103 -12 128 -3 27 2 84 12 140 11 52 18 124 17 161 l-1 68 44 32
c25 17 47 42 50 54 7 26 -50 144 -69 143 -6 0 -50 -9 -97 -19z"/>
<path d="M13037 7796 c-144 -32 -148 -33 -192 -76 -44 -43 -115 -163 -115
-194 0 -8 -25 -39 -55 -69 -67 -65 -73 -91 -18 -81 l36 7 -6 -48 c-5 -36 -3
-54 11 -77 l17 -30 -35 -27 c-19 -14 -60 -52 -91 -83 -47 -48 -63 -58 -90 -58
-19 0 -56 -8 -83 -19 -48 -18 -51 -18 -90 0 -56 26 -88 24 -191 -11 -139 -47
-145 -60 -67 -145 23 -25 42 -50 42 -55 0 -5 -11 -15 -24 -22 -13 -7 -47 -42
-76 -78 -29 -36 -68 -79 -88 -96 -34 -30 -35 -33 -22 -63 8 -21 19 -31 34 -31
11 0 258 39 548 86 l527 88 22 -28 c12 -15 23 -25 26 -22 8 8 63 -53 63 -69 0
-22 53 -51 143 -80 43 -14 95 -35 115 -45 51 -28 72 -26 72 5 0 14 9 34 20 45
17 17 19 29 14 102 -3 46 -10 103 -15 129 -6 25 -11 115 -12 200 -2 90 -10
199 -21 264 -16 103 -20 112 -52 140 -29 26 -38 45 -59 128 -14 53 -25 114
-25 135 0 21 -9 48 -20 62 -11 14 -20 30 -20 37 0 7 -5 35 -11 63 -13 61 -5
60 -212 16z"/>
<path d="M10405 7729 c-4 -5 -17 -9 -29 -9 -13 0 -35 -9 -50 -21 -21 -17 -30
-18 -41 -9 -11 9 -18 9 -31 -4 -9 -10 -30 -20 -46 -23 -32 -6 -48 -29 -48 -67
0 -29 -6 -31 -44 -16 -22 8 -26 7 -26 -8 0 -10 -6 -26 -13 -37 -15 -22 -33
-87 -41 -147 -2 -21 -14 -47 -25 -59 -12 -13 -23 -39 -26 -58 -4 -20 -16 -63
-28 -96 -12 -35 -20 -78 -18 -104 1 -33 -3 -49 -20 -67 -18 -20 -22 -36 -24
-116 -1 -64 -8 -108 -21 -140 l-19 -48 29 -83 c22 -65 27 -92 22 -127 -11 -78
-7 -113 17 -140 13 -14 29 -47 35 -74 13 -49 43 -85 74 -86 9 0 37 11 61 24
25 13 58 28 74 33 25 9 35 26 68 104 38 91 39 98 40 209 l0 115 -41 65 c-41
65 -63 143 -44 155 16 10 12 96 -5 115 -14 15 -13 20 8 51 40 59 50 96 43 153
-5 49 -4 54 24 81 17 16 44 53 60 82 43 75 49 72 65 -29 3 -21 10 -38 14 -38
5 0 8 17 9 38 0 38 45 152 60 152 5 0 7 23 4 51 -4 45 -2 51 17 56 11 3 21 9
21 14 0 5 6 9 14 9 23 0 28 18 12 42 -18 25 -123 71 -131 57z"/>
<path d="M14250 7721 c0 -10 30 -24 37 -17 3 3 2 9 -2 15 -8 13 -35 15 -35 2z"/>
<path d="M14230 7700 c0 -13 18 -22 24 -11 3 5 -1 11 -9 15 -8 3 -15 1 -15 -4z"/>
<path d="M5907 7479 c-10 -90 -21 -166 -25 -169 -4 -3 -9 -21 -10 -40 -4 -76
-34 -460 -41 -535 -5 -44 -7 -81 -6 -83 5 -6 298 -31 483 -41 346 -20 538 -30
692 -36 163 -7 237 -24 287 -69 22 -18 25 -18 55 -3 18 9 55 18 81 20 38 4 55
0 83 -19 19 -13 38 -24 41 -24 3 0 20 -10 37 -23 40 -30 64 -39 72 -26 3 6 -2
19 -12 30 -16 18 -16 21 10 73 26 52 27 53 11 101 -16 46 -16 49 4 76 20 27
21 40 21 328 l0 301 -45 41 c-51 47 -54 65 -26 132 l19 44 -126 6 c-70 4 -183
7 -252 7 -184 0 -1136 49 -1285 66 l-50 6 -18 -163z"/>
<path d="M10555 7615 c-16 -14 -36 -25 -43 -25 -9 0 -12 -14 -11 -49 2 -40 -2
-54 -18 -68 -26 -23 -53 -93 -53 -137 0 -30 -32 -77 -45 -65 -2 3 -11 30 -19
60 -11 43 -16 50 -21 34 -5 -11 -25 -41 -46 -67 -36 -43 -39 -52 -39 -108 0
-60 -15 -105 -48 -142 -14 -16 -13 -20 2 -37 18 -20 18 -65 1 -148 -6 -26 1
-44 37 -104 l43 -74 -1 -130 c-1 -126 -2 -133 -36 -215 -20 -47 -35 -86 -33
-88 5 -6 359 20 584 42 l215 21 11 53 c7 28 10 52 8 52 -6 0 28 62 59 107 16
24 30 60 32 80 3 32 7 38 28 39 43 0 51 12 43 68 -3 28 -17 85 -31 126 -14 41
-27 103 -31 138 -5 53 -10 66 -35 87 -16 14 -33 25 -38 25 -10 0 -113 -118
-129 -147 -8 -17 -21 -23 -45 -23 -39 0 -63 23 -77 75 -9 30 -7 40 7 56 9 10
23 19 30 19 16 0 34 31 34 57 0 10 9 24 19 30 35 22 35 66 1 174 -30 93 -31
101 -16 118 16 18 14 20 -35 56 -36 25 -64 38 -90 39 -25 1 -48 11 -64 26 -17
16 -35 23 -60 22 -19 -1 -35 2 -35 6 0 5 -6 16 -12 25 -12 14 -16 14 -43 -8z"/>
<path d="M14160 7636 c0 -2 8 -10 18 -17 15 -13 16 -12 3 4 -13 16 -21 21 -21
13z"/>
<path d="M10017 7603 c-2 -4 -10 -32 -17 -61 -7 -30 -18 -56 -25 -58 -7 -3
-20 -26 -29 -52 -10 -26 -21 -55 -27 -64 -5 -10 -9 -25 -9 -33 0 -19 -41 -85
-64 -104 -25 -21 -37 -47 -30 -66 6 -14 8 -13 21 5 8 11 18 18 23 15 5 -3 14
4 20 15 6 11 17 20 24 20 19 0 42 30 38 51 -2 10 13 35 32 56 25 28 36 52 41
88 4 28 18 79 31 114 14 35 23 65 22 66 -10 9 -47 14 -51 8z"/>
<path d="M4216 7449 c-3 -13 -20 -127 -36 -254 -17 -126 -47 -320 -66 -430
-19 -110 -45 -280 -59 -379 -14 -98 -28 -189 -31 -202 -5 -18 -1 -24 18 -29
50 -11 486 -66 758 -95 284 -30 940 -84 946 -77 2 1 8 70 14 152 34 489 70
962 86 1112 l6 62 -33 4 c-19 3 -158 15 -309 27 -232 18 -1088 105 -1242 126
-44 6 -47 5 -52 -17z"/>
<path d="M14050 7219 c0 -5 -17 -17 -37 -26 -21 -8 -40 -18 -43 -22 -3 -4 -66
-20 -140 -35 -74 -15 -182 -38 -240 -52 l-105 -25 0 -119 c0 -102 2 -119 15
-115 8 2 112 23 230 45 118 22 232 45 253 51 41 11 67 0 67 -27 0 -13 11 -18
36 -15 7 1 15 -14 18 -33 6 -34 7 -34 42 -24 20 5 43 7 51 4 8 -3 28 3 44 15
34 24 33 37 -1 19 -20 -11 -21 -10 -15 9 10 34 -68 130 -107 131 -20 0 -48 37
-48 64 0 10 10 39 22 63 21 42 21 46 5 58 -9 7 -17 20 -17 29 0 9 -7 16 -15
16 -8 0 -15 -5 -15 -11z"/>
<path d="M858 7152 c-1 -9 -2 -51 -3 -93 -1 -68 -4 -80 -33 -120 -18 -25 -35
-63 -38 -85 -4 -24 -16 -49 -33 -64 -14 -14 -43 -44 -63 -68 -43 -51 -42 -58
21 -179 35 -68 41 -87 41 -142 0 -50 -5 -69 -24 -94 -19 -25 -23 -41 -19 -76
2 -24 0 -56 -5 -71 -11 -29 3 -67 81 -220 28 -55 32 -71 25 -103 -9 -41 3 -77
26 -77 7 0 18 -12 25 -26 13 -28 34 -28 40 2 4 22 21 35 35 27 5 -3 25 -8 45
-9 20 -2 49 -5 64 -6 15 -2 32 -9 36 -17 5 -7 14 -10 20 -6 12 7 41 -11 41
-25 0 -4 -9 -10 -20 -13 -17 -4 -20 -2 -16 16 3 12 3 16 0 10 -9 -20 -47 -15
-94 9 l-42 23 -20 -25 c-22 -27 -19 -77 7 -96 20 -15 19 -54 -1 -54 -8 0 -22
17 -31 38 l-16 37 -11 -35 c-6 -19 -16 -44 -23 -56 -8 -14 -9 -33 -2 -63 13
-57 32 -83 71 -95 22 -8 34 -19 38 -36 10 -40 -6 -93 -34 -113 -22 -16 -26
-26 -26 -71 0 -36 6 -61 18 -77 21 -29 42 -75 42 -94 0 -37 64 -186 97 -224
33 -39 34 -43 18 -55 -21 -15 -14 -66 9 -66 7 0 20 -8 30 -19 13 -14 14 -24 6
-45 -5 -15 -10 -38 -10 -51 0 -13 -10 -33 -21 -44 -15 -14 -20 -27 -15 -43 9
-34 83 -83 127 -84 20 0 66 -15 102 -32 65 -31 77 -44 140 -142 13 -19 32 -36
42 -38 78 -13 92 -21 104 -62 8 -27 21 -45 40 -54 15 -8 44 -34 63 -58 20 -24
46 -54 58 -68 40 -46 97 -134 109 -172 8 -24 10 -61 5 -107 -5 -56 -4 -72 7
-75 8 -2 168 -21 356 -42 324 -35 343 -36 367 -20 34 21 33 36 -4 71 -40 38
-41 86 -4 112 55 38 74 62 74 94 0 43 20 110 39 133 9 10 33 27 54 37 30 16
37 25 37 49 0 16 -5 32 -10 35 -15 9 -60 101 -60 122 0 46 -102 210 -299 483
-42 58 -152 222 -245 365 -170 261 -266 403 -426 635 -48 69 -104 153 -124
187 l-38 61 16 84 c8 45 28 133 45 195 17 62 64 244 105 405 41 161 77 300 81
310 8 19 33 11 -435 137 -607 163 -560 152 -562 133z"/>
<path d="M13975 6893 c-46 -10 -47 -11 -32 -40 11 -20 13 -50 9 -105 -2 -43
-1 -78 2 -78 13 0 33 25 41 50 4 13 14 31 22 39 8 8 12 23 9 35 -3 12 -6 40
-6 64 0 43 -2 45 -45 35z"/>
<path d="M1880 6887 c0 -5 -103 -412 -165 -652 -29 -115 -60 -238 -68 -273
l-15 -62 57 -90 c31 -50 90 -138 132 -197 104 -148 260 -379 414 -618 72 -110
166 -249 209 -310 134 -186 276 -398 276 -412 0 -25 17 -12 35 27 10 22 15 49
11 62 -7 29 13 247 26 271 6 12 21 17 53 17 35 0 47 -5 65 -27 15 -19 24 -23
32 -15 14 14 64 264 198 1002 179 985 178 981 166 985 -19 6 -559 114 -626
125 -63 11 -589 124 -717 155 -62 15 -83 18 -83 12z"/>
<path d="M13692 6837 l-203 -42 6 -25 c11 -54 24 -242 19 -269 -3 -16 -1 -32
5 -35 5 -4 44 20 84 53 62 50 91 66 178 95 57 19 114 44 127 55 21 19 23 26
18 93 -6 78 -14 119 -25 117 -3 -1 -97 -20 -209 -42z"/>
<path d="M14235 6800 c-3 -5 1 -10 10 -10 9 0 13 5 10 10 -3 6 -8 10 -10 10
-2 0 -7 -4 -10 -10z"/>
<path d="M14105 6780 c-3 -5 -2 -10 4 -10 5 0 13 5 16 10 3 6 2 10 -4 10 -5 0
-13 -4 -16 -10z"/>
<path d="M8850 6733 c-50 -11 -193 -15 -612 -20 -608 -6 -568 -1 -546 -75 9
-31 9 -50 0 -85 -7 -24 -10 -48 -7 -53 3 -4 0 -10 -6 -12 -9 -3 -9 -9 0 -25 6
-12 11 -35 11 -51 0 -16 7 -35 15 -42 8 -7 15 -22 15 -33 0 -11 7 -28 16 -38
9 -10 18 -35 21 -56 3 -21 11 -50 19 -64 10 -20 11 -36 4 -60 -11 -36 9 -86
56 -142 19 -22 21 -33 14 -52 -5 -13 -6 -27 -1 -29 4 -3 8 -32 8 -64 0 -81 14
-103 61 -97 20 2 228 7 462 10 234 3 450 8 481 11 50 6 59 4 78 -17 11 -12 20
-28 19 -33 -2 -6 2 -12 7 -14 6 -1 12 10 13 25 3 25 56 86 82 95 6 2 12 10 13
18 1 8 9 30 16 48 13 31 12 35 -13 61 -32 34 -33 55 -1 97 21 27 34 34 80 39
30 4 59 12 64 19 20 25 51 88 47 95 -3 4 -2 21 3 37 7 26 2 34 -46 81 -29 29
-56 65 -59 80 -4 20 -17 33 -43 46 -21 9 -42 17 -48 17 -33 0 -62 86 -61 182
1 34 -5 64 -12 73 -11 13 -79 48 -84 44 0 -1 -30 -8 -66 -16z"/>
<path d="M12970 6682 c-14 -2 -99 -16 -190 -32 -416 -72 -862 -142 -875 -136
-9 3 -20 17 -25 31 l-10 26 -58 -32 c-31 -18 -61 -36 -66 -40 -14 -12 -8 -96
20 -291 14 -95 33 -244 41 -330 14 -131 19 -158 32 -158 9 0 108 14 221 30
113 17 270 39 350 50 181 24 513 77 563 91 20 5 37 14 37 19 0 5 21 21 48 37
135 78 196 151 156 190 -7 7 -18 13 -24 13 -6 0 -24 10 -40 22 -22 16 -30 30
-30 53 0 17 -6 40 -14 50 -12 16 -12 22 1 41 8 13 11 32 8 47 -5 20 0 35 24
64 16 21 34 50 40 64 9 25 7 28 -31 45 -28 13 -45 29 -55 52 -7 18 -18 30 -23
27 -6 -3 -10 -1 -10 4 0 6 -7 11 -15 11 -8 0 -15 3 -15 8 -1 21 -37 48 -60 44z"/>
<path d="M5815 6513 c-4 -60 -15 -204 -24 -321 l-16 -212 30 -5 c29 -4 426
-35 454 -35 11 0 13 -21 7 -117 -4 -65 -9 -141 -12 -169 l-6 -50 204 -12 c284
-17 634 -30 968 -37 157 -3 336 -8 398 -11 126 -5 130 -3 87 56 -14 19 -25 42
-25 51 0 10 -12 41 -27 71 -23 45 -27 66 -28 140 -1 64 -5 92 -17 105 -36 42
-60 105 -54 145 4 25 1 48 -9 68 -8 16 -15 41 -15 55 0 14 -10 39 -21 54 -12
16 -19 34 -15 39 3 5 -1 15 -9 22 -8 7 -15 18 -15 25 0 8 -14 16 -30 20 -17 4
-36 12 -43 19 -6 6 -38 28 -70 48 -54 34 -63 36 -115 31 -32 -3 -66 -12 -77
-19 -25 -18 -31 -18 -52 5 -10 10 -47 30 -83 43 -58 23 -85 26 -255 32 -282 9
-728 34 -913 51 -90 8 -174 15 -187 15 -22 0 -23 -3 -30 -107z"/>
<path d="M13815 6592 c-88 -14 -149 -49 -240 -136 -36 -35 -37 -37 -10 -22 51
26 106 46 131 46 33 0 85 29 117 67 32 36 32 50 2 45z"/>
<path d="M3330 6512 c-25 -157 -240 -1346 -268 -1484 -18 -87 -18 -87 2 -92
126 -31 1224 -222 1230 -214 2 2 10 59 19 128 13 100 70 514 162 1178 4 25 2
42 -4 42 -32 0 -467 63 -473 69 -4 3 4 78 17 166 14 87 22 162 18 166 -5 4
-150 30 -323 58 -173 28 -327 53 -341 55 -26 5 -27 3 -39 -72z"/>
<path d="M13855 6549 c-4 -6 -5 -12 -2 -15 7 -7 37 7 37 17 0 13 -27 11 -35
-2z"/>
<path d="M13205 6479 c-4 -11 -20 -36 -37 -54 -24 -28 -28 -40 -23 -65 4 -20
2 -36 -6 -46 -10 -12 -10 -17 0 -23 7 -5 11 -22 9 -42 -2 -26 3 -39 22 -56 14
-13 31 -23 39 -23 7 0 21 -9 30 -19 9 -10 28 -21 41 -23 31 -4 34 -36 5 -52
-11 -6 -23 -15 -26 -19 -4 -5 -23 -28 -44 -51 -36 -41 -74 -129 -75 -175 0
-34 46 -66 97 -66 24 -1 43 2 43 6 0 9 54 -2 61 -13 4 -6 34 30 68 79 61 87
62 89 61 153 -1 36 1 90 4 120 4 50 -10 124 -24 117 -71 -39 -88 -31 -86 39 2
41 7 49 52 85 27 23 50 42 51 43 3 3 -19 14 -87 44 -161 71 -165 72 -175 41z"/>
<path d="M13476 6485 c-10 -26 -7 -52 7 -63 11 -9 13 -3 11 29 -2 45 -9 58
-18 34z"/>
<path d="M13781 6481 c-8 -6 -9 -11 -3 -15 6 -3 14 -1 17 5 9 14 2 20 -14 10z"/>
<path d="M11631 6429 c-40 -23 -98 -64 -127 -93 -30 -28 -60 -57 -68 -63 -18
-16 -58 -17 -72 -3 -7 7 -21 -2 -44 -25 -29 -30 -40 -35 -82 -35 -36 0 -50 4
-58 19 -6 12 -17 17 -29 14 -11 -3 -36 7 -60 22 l-41 27 -167 -17 c-93 -9
-171 -20 -175 -24 -3 -3 4 -150 17 -326 13 -176 26 -363 30 -415 8 -125 12
-141 30 -134 8 4 21 2 28 -4 6 -5 32 -17 57 -25 31 -10 44 -20 42 -31 -2 -10
7 -18 25 -22 15 -4 37 -15 48 -25 19 -17 37 -18 95 -4 18 5 33 0 49 -14 13
-12 25 -21 27 -21 1 0 16 14 32 30 17 17 33 30 37 30 3 0 32 -22 65 -49 61
-51 70 -54 107 -33 20 11 22 18 17 56 -5 35 -2 49 16 74 16 22 21 38 16 57 -8
31 -1 46 18 39 8 -3 12 -14 9 -25 -6 -23 22 -27 31 -3 3 8 10 12 16 9 5 -3 10
-2 10 4 0 5 -5 11 -11 13 -27 9 65 119 112 133 11 4 29 24 42 46 12 21 28 39
35 39 7 0 12 8 11 18 -3 37 2 61 16 75 8 8 13 16 11 18 -2 2 0 37 5 77 6 55 4
81 -7 107 -18 44 -18 74 1 95 16 18 17 12 -33 377 l-7 53 -74 -41z"/>
<path d="M13629 6432 c-76 -37 -241 -173 -227 -187 6 -6 100 54 106 67 2 4 10
4 18 1 7 -3 17 2 20 11 3 9 10 16 16 16 5 0 17 7 26 16 10 10 18 12 20 6 2 -6
17 -2 38 10 24 14 32 23 23 29 -7 4 -19 5 -27 1 -10 -3 -13 0 -10 9 3 8 18 15
34 15 41 2 84 15 84 25 0 18 -67 8 -121 -19z"/>
<path d="M9600 6418 c-124 -4 -266 -11 -316 -14 l-92 -6 15 -28 c8 -16 32 -44
54 -62 22 -19 40 -42 40 -53 -1 -76 -52 -195 -84 -195 -40 0 -103 -25 -124
-50 -29 -33 -29 -38 7 -58 22 -12 30 -25 30 -44 0 -15 -4 -29 -9 -33 -5 -3
-12 -18 -16 -33 -3 -16 -27 -47 -56 -72 -39 -34 -49 -49 -45 -65 3 -12 -1 -30
-9 -41 -23 -30 -18 -108 10 -167 17 -37 48 -74 108 -127 47 -41 89 -85 95 -96
6 -12 8 -39 5 -61 -6 -47 7 -61 38 -40 15 11 17 16 7 20 -7 2 -10 8 -6 12 10
10 71 -12 96 -36 30 -27 28 -58 -9 -107 -40 -54 -46 -97 -19 -140 11 -18 31
-37 45 -42 14 -5 25 -14 25 -20 0 -5 11 -12 25 -16 27 -7 132 -115 145 -149 4
-11 4 -28 -1 -37 -5 -9 -9 -30 -9 -47 0 -25 5 -32 27 -37 14 -4 32 -3 38 2 58
43 60 44 96 32 18 -6 45 -17 59 -24 16 -8 31 -9 40 -4 12 7 12 12 -3 28 -14
16 -15 22 -4 45 10 22 45 45 67 44 3 0 15 5 27 12 22 11 22 12 6 52 -12 32
-14 48 -5 77 6 20 14 62 17 93 5 43 17 71 47 115 22 33 42 71 45 87 3 15 9 30
14 32 4 3 1 18 -7 33 -7 15 -14 36 -14 47 0 12 -5 26 -10 31 -7 7 -6 20 5 40
13 24 14 57 10 189 -17 492 -55 781 -112 844 -13 13 -23 37 -23 52 0 24 -4 29
-22 27 -13 0 -124 -5 -248 -10z"/>
<path d="M13462 6353 c-24 -24 -24 -25 -2 -8 42 33 44 35 37 35 -4 0 -19 -12
-35 -27z"/>
<path d="M10445 6239 c-71 -4 -148 -10 -170 -13 -22 -3 -47 -1 -54 3 -16 10
-106 -23 -137 -51 -26 -23 -62 -23 -87 0 -19 17 -19 16 -13 -23 20 -127 37
-396 42 -650 3 -165 10 -295 15 -302 6 -6 7 -28 3 -48 -7 -40 -51 -125 -63
-125 -12 0 -38 -77 -44 -126 l-5 -41 47 2 c32 1 46 6 46 16 0 30 85 16 111
-19 10 -13 19 -9 62 27 42 36 53 41 70 32 11 -6 23 -18 27 -28 5 -14 12 -7 30
35 25 54 37 62 64 38 9 -7 30 -16 47 -19 29 -6 32 -3 43 32 6 23 28 54 51 75
22 20 40 40 40 46 0 5 9 14 21 20 16 9 19 17 14 40 -11 50 7 67 71 67 68 0 76
9 69 83 -21 232 -65 841 -65 903 l0 37 -52 -1 c-29 -1 -111 -5 -183 -10z"/>
<path d="M4506 6061 c-2 -3 -6 -35 -10 -71 -8 -76 -91 -677 -141 -1024 -20
-132 -32 -243 -28 -247 17 -17 803 -98 1393 -143 179 -14 349 -28 378 -31 l52
-5 0 37 c0 48 24 390 49 723 11 140 25 325 31 410 6 85 12 166 15 180 l4 26
-187 12 c-103 7 -236 17 -297 22 -60 6 -252 22 -425 36 -274 21 -741 66 -808
78 -12 2 -24 1 -26 -3z"/>
<path d="M11756 6021 c-4 -7 -5 -15 -2 -18 9 -9 19 4 14 18 -4 11 -6 11 -12 0z"/>
<path d="M13124 5959 c-10 -12 -33 -28 -51 -35 -56 -24 -53 -32 17 -37 30 -2
35 1 43 28 5 17 13 38 18 48 13 24 -4 21 -27 -4z"/>
<path d="M11772 5940 c0 -14 2 -19 5 -12 2 6 2 18 0 25 -3 6 -5 1 -5 -13z"/>
<path d="M11775 5826 c10 -63 -27 -167 -83 -233 -25 -29 -49 -53 -54 -53 -5 0
-27 -18 -50 -40 -35 -33 -42 -46 -41 -77 1 -42 -20 -66 -53 -58 -15 3 -24 -1
-28 -13 -3 -9 -13 -28 -20 -41 -11 -17 -12 -31 -4 -52 14 -39 6 -54 -39 -77
-35 -19 -37 -22 -38 -68 0 -27 5 -53 12 -59 6 -5 26 -37 44 -70 44 -83 46 -84
84 -78 30 5 36 2 57 -30 41 -63 86 -73 119 -26 l22 31 17 -22 c12 -16 22 -20
31 -14 8 5 21 7 29 6 9 -1 27 9 40 23 14 15 34 25 52 25 18 0 33 8 44 25 9 14
23 25 30 25 15 0 29 28 37 76 5 27 44 122 68 168 6 10 13 44 16 75 3 31 10 64
15 73 8 17 12 16 59 -9 58 -30 60 -29 84 53 16 51 52 97 74 92 18 -5 63 83 75
147 13 67 38 81 86 48 14 -10 35 -16 47 -15 16 2 23 -2 23 -13 0 -9 4 -14 9
-11 5 4 12 0 14 -6 3 -7 6 -1 6 13 1 33 -44 84 -92 104 -20 8 -37 19 -37 23 0
4 -16 6 -35 4 -22 -3 -35 -10 -35 -18 0 -8 -8 -17 -17 -21 -10 -4 -38 -20 -63
-37 -24 -17 -50 -33 -56 -36 -6 -3 -31 -30 -56 -60 -24 -30 -51 -55 -59 -55
-10 0 -18 24 -27 85 -7 46 -15 86 -17 88 -3 3 -61 -3 -131 -13 -108 -16 -127
-17 -135 -4 -5 8 -9 49 -9 92 0 47 -4 77 -11 77 -6 0 -8 -15 -4 -44z"/>
<path d="M12979 5865 c-3 -2 -104 -21 -225 -40 -120 -20 -228 -38 -238 -42
-21 -6 -13 -15 74 -82 18 -13 36 -34 41 -47 4 -13 15 -25 24 -25 29 -3 33 -4
42 -13 5 -5 3 -6 -4 -2 -18 10 -16 -2 4 -22 12 -12 18 -13 21 -4 6 19 39 14
69 -12 23 -20 25 -26 15 -39 -24 -29 -4 -88 45 -134 41 -39 59 -50 136 -81 40
-17 35 6 -13 61 -22 25 -40 48 -40 52 0 3 -13 25 -28 48 -30 44 -31 73 -3 94
14 10 13 14 -11 40 -30 31 -36 67 -15 80 6 4 17 17 24 28 6 11 16 19 21 18 16
-4 92 68 92 87 0 9 5 21 12 28 9 9 6 12 -13 12 -14 0 -28 -2 -30 -5z"/>
<path d="M13085 5816 c-10 -49 60 -305 89 -328 20 -16 21 -16 28 3 8 22 28 17
28 -7 0 -8 5 -14 11 -14 6 0 9 7 5 15 -3 8 -2 14 2 12 4 -1 20 8 35 20 l28 21
-45 32 c-25 18 -52 47 -60 64 -8 17 -33 58 -56 91 -26 39 -40 71 -40 93 0 42
-17 41 -25 -2z"/>
<path d="M13041 5814 c-1 -12 -17 -36 -36 -53 -31 -27 -33 -31 -17 -40 15 -9
15 -12 2 -21 -16 -10 -16 -10 27 -14 16 -2 49 -38 51 -56 1 -8 4 -34 8 -58 4
-31 1 -49 -10 -67 -23 -34 -11 -70 31 -96 19 -12 32 -27 29 -34 -2 -8 2 -16
10 -19 8 -3 14 -16 14 -28 0 -15 9 -27 26 -35 23 -11 27 -10 31 7 5 19 10 22
43 24 9 1 21 28 34 78 21 79 17 108 -9 71 -16 -23 -89 -37 -117 -22 -19 10
-55 118 -93 281 -13 57 -24 93 -24 82z"/>
<path d="M12191 5744 c-45 -7 -85 -14 -87 -16 -2 -2 0 -37 3 -78 l6 -73 29 34
c59 70 81 90 111 103 18 8 41 21 52 30 20 15 20 15 -5 14 -14 0 -63 -7 -109
-14z"/>
<path d="M13248 5728 c9 -9 15 -9 24 0 9 9 7 12 -12 12 -19 0 -21 -3 -12 -12z"/>
<path d="M13290 5730 c0 -5 7 -7 15 -4 8 4 15 8 15 10 0 2 -7 4 -15 4 -8 0
-15 -4 -15 -10z"/>
<path d="M8435 5719 c-154 -3 -339 -7 -412 -8 l-131 -1 10 -32 c20 -60 38 -96
66 -126 6 -7 12 -17 12 -22 0 -5 6 -7 14 -4 9 3 21 -7 32 -25 10 -16 27 -31
38 -33 29 -4 27 -64 -3 -84 -13 -9 -18 -21 -14 -32 11 -30 54 -82 68 -82 8 0
24 -10 36 -22 21 -23 21 -25 17 -473 l-3 -450 275 3 c151 2 421 7 599 12 295
9 326 8 343 -7 26 -23 22 -42 -17 -92 -19 -24 -35 -46 -35 -49 0 -2 27 -2 59
2 38 4 62 3 66 -4 14 -23 32 -10 27 20 -5 33 15 90 31 90 5 0 3 8 -6 18 -24
26 -21 38 13 59 17 9 30 21 30 25 0 4 17 8 38 10 34 3 37 6 40 35 2 24 -1 33
-18 38 -11 3 -18 11 -15 16 4 5 1 9 -4 9 -6 0 -11 7 -11 15 0 8 -6 15 -13 15
-28 0 -49 37 -45 77 3 21 8 45 12 54 10 23 -79 125 -134 154 -55 29 -94 65
-116 107 -13 26 -14 37 -4 74 7 23 20 51 29 61 9 10 21 30 28 45 10 22 9 29
-6 42 -23 21 -43 20 -71 -4 -29 -25 -32 -25 -60 5 -19 20 -22 32 -18 67 l5 43
-88 80 c-107 97 -142 157 -144 252 -1 35 -7 68 -12 75 -6 7 -14 23 -17 36 -8
25 33 24 -491 11z"/>
<path d="M12920 5703 c0 -4 5 -15 10 -23 8 -13 10 -13 10 2 0 9 -4 20 -10 23
-5 3 -10 3 -10 -2z"/>
<path d="M12407 5653 c-4 -3 -7 -19 -7 -34 0 -15 -16 -60 -35 -101 -28 -58
-40 -73 -58 -73 -22 0 -28 -9 -76 -117 -24 -54 -46 -61 -88 -28 -14 11 -29 20
-33 20 -5 0 -11 -24 -15 -52 -4 -29 -19 -78 -32 -108 -13 -30 -34 -89 -46
-131 -20 -67 -29 -81 -70 -118 -31 -26 -58 -41 -75 -41 -18 0 -37 -10 -54 -30
-28 -32 -83 -41 -106 -18 -9 9 -15 10 -20 2 -31 -48 -110 -33 -144 26 -22 38
-38 51 -38 31 0 -6 -25 -34 -56 -63 -31 -29 -87 -96 -125 -149 -64 -89 -73
-97 -117 -110 -26 -7 -39 -15 -30 -17 31 -6 639 60 1038 114 284 38 871 133
905 147 17 6 36 10 44 9 7 -2 10 1 6 8 -4 6 -15 8 -26 5 -23 -8 -25 12 -3 36
14 16 14 20 -3 45 l-18 28 -5 -29 c-5 -29 -7 -30 -58 -28 -35 1 -60 7 -73 19
-28 25 -23 37 11 30 28 -5 30 -4 20 14 -6 11 -14 20 -18 21 -4 0 -28 2 -53 3
-48 2 -79 18 -79 42 0 16 3 16 52 5 32 -7 37 -6 41 11 3 11 15 22 26 25 30 8
33 30 5 47 -13 9 -24 25 -24 35 0 21 -16 37 -63 60 -17 9 -33 23 -33 31 -1 8
-2 21 -3 27 0 7 -18 21 -39 32 -21 11 -43 31 -50 45 -6 14 -18 26 -25 26 -25
0 -67 41 -67 65 0 13 13 38 29 55 18 20 27 39 24 51 -3 10 0 19 6 19 6 0 11 4
11 9 0 6 -15 7 -34 4 -30 -5 -40 0 -83 40 -48 45 -50 46 -66 27 -9 -11 -26
-20 -38 -20 -22 0 -91 37 -97 52 -4 10 -26 11 -35 1z"/>
<path d="M12980 5649 c0 -5 9 -9 20 -9 11 0 20 2 20 4 0 2 -9 6 -20 9 -11 3
-20 1 -20 -4z"/>
<path d="M12940 5626 c0 -2 9 -6 20 -9 11 -3 20 -1 20 4 0 5 -9 9 -20 9 -11 0
-20 -2 -20 -4z"/>
<path d="M13010 5607 c0 -9 9 -34 20 -54 18 -34 20 -35 20 -13 0 14 -9 39 -20
55 -14 22 -20 25 -20 12z"/>
<path d="M6246 5538 c-6 -51 -74 -990 -72 -995 1 -1 150 -9 331 -17 454 -22
981 -36 1336 -36 l299 0 0 363 -1 362 -39 27 c-40 28 -80 91 -80 128 0 11 9
25 20 32 20 13 28 38 12 38 -5 0 -28 18 -51 40 l-42 40 -148 0 c-288 0 -1432
42 -1523 56 l-37 6 -5 -44z"/>
<path d="M12937 5539 c-17 -19 -17 -21 17 -54 18 -19 39 -35 45 -35 6 0 11 19
11 45 0 34 -5 47 -19 55 -26 13 -33 12 -54 -11z"/>
<path d="M12747 5462 c-10 -10 -17 -26 -17 -34 0 -9 -5 -18 -12 -20 -6 -2 3
-10 21 -18 23 -9 35 -10 43 -2 15 15 1 62 -20 62 -14 0 -15 2 -2 10 8 5 12 11
9 15 -3 3 -13 -3 -22 -13z"/>
<path d="M12833 5358 c5 -13 1 -18 -14 -18 -29 0 -14 -17 21 -25 18 -4 38 -18
47 -33 33 -54 103 -104 103 -73 0 27 -54 100 -83 112 -17 7 -43 22 -56 33 -21
18 -23 18 -18 4z"/>
<path d="M10780 5337 c-10 -8 -14 -26 -12 -59 3 -41 0 -49 -23 -64 -15 -10
-46 -17 -72 -17 l-45 0 6 -38 c5 -33 3 -41 -19 -55 -14 -9 -25 -20 -25 -25 0
-5 -18 -25 -40 -45 -24 -22 -40 -45 -40 -59 0 -34 -30 -55 -73 -51 -21 2 -40
6 -44 10 -18 18 -40 2 -60 -44 -24 -54 -42 -58 -61 -14 -13 27 -27 31 -36 9
-3 -8 -10 -15 -17 -15 -6 0 -20 -11 -31 -25 -24 -31 -29 -31 -66 0 -26 22 -31
23 -42 10 -7 -8 -16 -13 -20 -10 -5 3 -11 1 -14 -4 -3 -5 -31 -7 -61 -5 -52 3
-55 2 -61 -22 -4 -14 -1 -36 6 -48 22 -42 10 -69 -40 -87 -44 -16 -45 -17 -50
-69 -4 -41 -9 -55 -25 -60 -21 -8 -46 -2 -56 12 -3 5 -23 13 -44 18 -33 8 -43
5 -68 -16 -16 -13 -34 -24 -40 -24 -6 0 4 -12 21 -26 34 -29 42 -67 21 -106
-11 -21 -11 -21 81 -15 51 4 117 7 147 7 50 0 53 1 53 25 0 14 6 25 13 25 78
3 229 12 342 20 77 5 219 14 315 20 403 24 461 30 514 57 28 14 72 32 98 40
26 7 48 19 48 25 0 14 110 159 163 215 38 39 39 44 25 60 -9 10 -27 41 -41 69
-14 28 -37 65 -51 81 -23 28 -25 37 -20 87 5 48 4 55 -9 50 -10 -3 -18 2 -22
15 -3 12 -9 21 -13 21 -4 0 -20 12 -35 26 l-29 26 -27 -26 c-30 -29 -57 -32
-85 -11 -13 10 -32 12 -63 8 -29 -4 -54 -1 -76 10 -18 8 -44 21 -59 28 -15 7
-30 20 -33 30 -3 10 -19 21 -35 24 -17 4 -32 11 -35 16 -8 12 -17 11 -35 -4z"/>
<path d="M13040 5308 c0 -18 7 -42 15 -52 18 -24 20 -87 3 -104 -8 -8 -8 -15
2 -27 17 -20 21 -66 8 -82 -14 -17 -6 -25 15 -17 14 5 50 82 75 164 13 40 6
80 -13 80 -8 0 -17 9 -20 21 -6 17 -58 49 -80 49 -3 0 -5 -15 -5 -32z"/>
<path d="M12990 5271 c0 -6 5 -13 10 -16 6 -3 10 1 10 9 0 9 -4 16 -10 16 -5
0 -10 -4 -10 -9z"/>
<path d="M13190 5256 c0 -9 5 -16 10 -16 6 0 10 4 10 9 0 6 -4 13 -10 16 -5 3
-10 -1 -10 -9z"/>
<path d="M12900 5221 c0 -5 5 -13 10 -16 6 -3 10 -2 10 4 0 5 -4 13 -10 16 -5
3 -10 2 -10 -4z"/>
<path d="M13016 5185 c-3 -9 0 -15 9 -15 8 0 15 7 15 15 0 8 -4 15 -9 15 -5 0
-11 -7 -15 -15z"/>
<path d="M13175 5169 c-4 -6 -4 -13 -1 -16 3 -3 -1 -18 -9 -34 -17 -31 -21
-69 -6 -53 14 14 41 114 31 114 -5 0 -12 -5 -15 -11z"/>
<path d="M13000 5141 c0 -12 39 -35 46 -28 3 2 -7 12 -21 21 -14 9 -25 12 -25
7z"/>
<path d="M13006 5005 c4 -8 8 -15 10 -15 2 0 4 7 4 15 0 8 -4 15 -10 15 -5 0
-7 -7 -4 -15z"/>
<path d="M13090 4909 c0 -5 5 -7 10 -4 6 3 10 8 10 11 0 2 -4 4 -10 4 -5 0
-10 -5 -10 -11z"/>
<path d="M3036 4893 c-3 -10 -17 -75 -31 -144 -31 -158 -42 -189 -65 -189 -10
0 -30 16 -44 35 -30 39 -69 47 -85 16 -6 -10 -12 -80 -15 -155 -5 -129 -19
-194 -46 -211 -14 -9 31 -139 61 -178 24 -29 30 -45 27 -75 -3 -33 -8 -40 -52
-64 -54 -28 -71 -61 -82 -158 -7 -52 -15 -64 -66 -96 -21 -14 -38 -31 -38 -39
0 -8 14 -30 31 -49 47 -54 39 -84 -33 -120 -61 -30 -72 -51 -40 -79 9 -8 132
-78 272 -155 140 -77 336 -185 435 -241 99 -55 193 -105 210 -110 16 -6 138
-26 270 -46 132 -19 252 -37 267 -40 22 -4 29 0 32 18 5 22 53 392 100 767 14
107 30 227 35 265 6 39 31 228 56 420 25 193 48 366 51 386 8 45 23 40 -216
78 -250 40 -674 114 -862 151 -84 16 -156 30 -160 30 -4 0 -9 -8 -12 -17z"/>
<path d="M13125 4774 c-117 -32 -1004 -164 -1305 -194 -167 -16 -159 -13 -153
-58 4 -29 1 -41 -13 -52 -16 -13 -17 -13 -9 0 11 20 -32 -15 -65 -53 -14 -16
-41 -32 -60 -36 -25 -5 -36 -13 -40 -31 -5 -20 -12 -25 -35 -25 -17 0 -36 -8
-43 -17 -7 -10 -19 -18 -26 -18 -7 0 -17 -15 -22 -32 -8 -26 -16 -34 -38 -36
-16 -2 -34 -8 -40 -13 -37 -31 -90 -59 -123 -64 -61 -10 -83 -25 -83 -56 0
-21 -7 -32 -30 -44 -23 -12 -30 -22 -30 -45 0 -36 9 -37 167 -15 93 14 123 23
218 69 109 54 112 54 265 70 209 22 223 21 251 -9 13 -13 33 -25 44 -25 26 0
45 -18 45 -43 0 -18 6 -19 86 -13 48 3 114 8 148 12 l61 6 130 -96 c72 -53
147 -111 169 -128 l38 -31 52 15 c29 9 68 14 90 11 38 -5 39 -5 32 21 -7 29
16 78 60 126 13 14 30 43 37 65 11 31 24 45 57 63 53 28 165 55 196 48 17 -5
22 -2 20 12 -2 9 3 27 11 39 13 20 13 21 -9 15 -13 -3 -29 -12 -36 -19 -15
-15 -68 -18 -76 -4 -3 4 -19 11 -36 15 -18 3 -29 10 -25 16 8 13 52 13 60 0 9
-15 34 -12 51 5 14 13 13 15 -3 15 -17 1 -17 1 0 11 9 5 17 16 17 24 0 19 -48
51 -90 59 -19 3 -44 16 -57 28 -44 41 -20 53 31 15 44 -33 102 -41 135 -18 14
10 35 21 46 26 13 5 16 9 7 12 -7 3 -28 -4 -47 -15 -42 -26 -91 -23 -87 4 5
35 12 45 23 39 6 -4 8 -13 5 -21 -7 -19 8 -18 55 6 22 12 48 18 58 15 13 -4
29 10 60 52 28 38 38 59 30 62 -7 2 -15 -1 -17 -7 -3 -11 -12 -9 -64 10 -29
11 -28 28 4 64 17 19 17 22 3 34 -13 11 -19 9 -38 -9 -13 -11 -28 -21 -34 -21
-6 0 -18 -11 -27 -25 -26 -40 -96 -30 -96 15 0 8 -7 27 -14 42 -8 15 -11 30
-6 33 11 7 25 -14 39 -57 7 -21 18 -38 26 -38 20 0 35 24 29 46 -5 17 3 24 44
41 41 17 50 26 55 53 7 30 -6 71 -21 69 -4 0 -29 -7 -57 -15z m-35 -608 c0 -3
-4 -8 -10 -11 -5 -3 -10 -1 -10 4 0 6 5 11 10 11 6 0 10 -2 10 -4z"/>
<path d="M4311 4622 c-6 -37 -24 -170 -41 -297 -16 -126 -48 -367 -70 -535
-111 -848 -129 -995 -122 -1000 8 -8 223 -42 229 -37 1 2 6 38 9 79 4 42 10
82 15 89 6 10 49 7 204 -15 108 -16 197 -27 198 -25 2 2 10 21 20 42 12 26 23
37 38 37 13 0 131 -13 263 -29 330 -41 666 -74 673 -68 3 3 12 79 19 169 8 90
26 280 40 423 13 143 33 373 45 510 11 138 28 321 37 408 10 87 15 160 12 161
-3 2 -48 7 -100 10 -207 15 -692 57 -815 71 -71 8 -195 21 -275 30 -154 16
-298 33 -342 40 -26 4 -27 2 -37 -63z"/>
<path d="M13135 4640 c-3 -5 1 -10 9 -10 9 0 16 5 16 10 0 6 -4 10 -9 10 -6 0
-13 -4 -16 -10z"/>
<path d="M13245 4590 l-29 -30 27 0 c28 0 51 28 38 48 -5 8 -16 3 -36 -18z"/>
<path d="M13318 4558 c20 -20 14 -35 -38 -111 -31 -44 -66 -82 -93 -98 -36
-22 -42 -29 -38 -55 1 -16 5 -32 8 -36 11 -19 46 -5 79 32 21 23 52 45 75 51
62 19 72 37 60 103 -12 65 -38 126 -54 126 -7 0 -7 -4 1 -12z"/>
<path d="M11350 4530 c-96 -10 -216 -23 -267 -29 -51 -6 -202 -18 -335 -26
-134 -8 -337 -21 -453 -30 -115 -9 -239 -17 -275 -18 -59 -2 -65 -4 -70 -26
-5 -23 -10 -24 -85 -27 -164 -6 -295 -14 -325 -20 -25 -5 -28 -9 -19 -21 7 -8
18 -12 26 -9 8 3 13 -2 13 -13 0 -10 -7 -22 -16 -25 -8 -3 -13 -10 -10 -14 3
-5 -5 -17 -16 -27 l-22 -18 24 -19 c20 -16 21 -20 8 -31 -9 -7 -18 -32 -21
-57 -3 -25 -14 -52 -24 -60 -10 -9 -19 -22 -21 -30 -2 -8 -11 -23 -20 -33 -19
-21 -24 -47 -13 -62 11 -15 11 -54 -1 -61 -6 -4 -14 -1 -18 6 -5 8 -9 7 -13
-4 -8 -21 51 -21 473 -1 323 15 395 20 800 56 306 27 303 26 311 69 4 19 19
44 33 55 14 11 26 31 26 43 0 32 32 59 81 67 42 7 130 50 137 67 2 4 16 8 32
8 24 0 29 5 32 27 2 17 12 32 28 40 13 7 30 20 37 29 8 11 21 15 38 11 23 -4
29 0 37 24 5 16 15 30 21 31 7 0 18 2 24 2 7 1 42 28 78 60 104 94 87 99 -235
66z"/>
<path d="M5910 4506 c0 -13 -3 -43 -6 -68 l-6 -44 308 -17 c527 -30 503 -28
509 -47 5 -17 -20 -508 -31 -592 -5 -39 -3 -48 9 -48 9 0 18 -9 22 -19 6 -20
50 -31 117 -31 38 1 68 -26 68 -60 0 -11 18 -20 63 -30 34 -7 69 -12 78 -11 9
1 21 -5 28 -13 9 -11 20 -12 44 -5 56 16 68 12 84 -30 19 -48 33 -55 70 -36
38 20 52 19 73 -7 16 -20 21 -21 44 -10 40 18 55 15 68 -13 l11 -25 18 30 c10
16 21 30 24 30 8 0 87 -35 141 -62 37 -18 44 -18 65 -5 13 8 50 20 81 26 32 7
60 17 64 22 3 5 27 7 55 3 37 -5 55 -3 74 10 20 13 28 14 45 4 11 -7 20 -19
20 -26 0 -7 15 -19 33 -27 17 -8 45 -23 61 -34 17 -11 33 -18 38 -15 15 10 9
586 -8 707 -8 62 -22 158 -30 215 -7 56 -14 120 -14 142 l0 40 -242 0 c-462 1
-1391 31 -1803 60 -186 13 -175 14 -175 -14z"/>
<path d="M5887 4308 c-4 -35 -16 -178 -27 -318 -11 -140 -29 -343 -40 -450
-11 -107 -26 -285 -35 -395 -23 -301 -25 -315 -44 -315 -28 0 -498 50 -661 70
-85 11 -187 22 -225 26 -69 6 -71 6 -83 -20 -13 -28 -11 -31 36 -41 29 -6 32
-10 32 -46 0 -44 9 -56 94 -118 31 -23 56 -46 56 -50 0 -23 148 -157 193 -174
10 -4 17 -17 17 -33 0 -14 9 -39 21 -55 21 -30 26 -52 32 -155 3 -45 12 -71
32 -102 15 -23 34 -42 41 -42 8 0 31 -18 51 -41 21 -22 58 -50 83 -61 24 -10
47 -22 50 -26 11 -15 79 -62 90 -62 7 0 20 -10 31 -22 l18 -23 48 53 c27 29
58 78 71 110 20 50 29 61 78 89 54 31 57 32 97 19 41 -14 122 -27 182 -31 44
-2 70 -20 104 -68 16 -23 59 -71 95 -106 36 -35 66 -68 66 -74 0 -5 20 -54 45
-108 25 -54 45 -112 45 -128 0 -24 11 -41 49 -77 28 -26 55 -61 61 -78 28 -74
62 -131 73 -120 14 14 49 -56 51 -102 1 -27 12 -69 23 -94 45 -96 54 -116 73
-150 10 -19 19 -43 20 -53 0 -9 12 -22 28 -28 15 -6 77 -34 137 -62 103 -48
116 -52 195 -53 51 -2 86 -7 88 -13 2 -7 21 -20 43 -31 l38 -20 21 22 c24 26
23 71 -5 149 -8 24 -15 55 -15 69 -1 29 -30 76 -30 48 0 -9 -3 -25 -6 -35 -5
-15 -4 -16 6 -3 9 12 10 11 5 -9 -5 -15 -2 -27 6 -32 8 -5 9 -9 3 -9 -6 0 -19
9 -29 20 -13 14 -16 28 -11 55 4 19 11 35 17 35 6 0 8 4 5 9 -3 5 2 12 11 15
14 6 14 9 -5 27 -25 23 -28 39 -8 39 7 0 16 12 19 26 3 19 1 24 -10 20 -43
-17 -60 -16 -77 3 -27 30 -6 51 50 51 45 0 63 15 79 68 5 17 2 22 -13 22 -28
0 -46 24 -28 39 10 8 21 9 41 1 24 -9 32 -7 52 11 28 27 29 35 3 42 -13 3 -20
14 -20 29 0 23 4 25 50 24 39 -1 49 2 47 14 -1 10 5 14 21 13 14 -2 22 3 22
13 0 11 -6 15 -20 11 -25 -6 -27 9 -2 17 28 9 37 6 34 -12 -2 -10 12 -2 37 23
39 37 51 52 33 41 -12 -7 -49 27 -57 53 -7 22 -5 23 21 19 16 -3 38 -9 48 -13
16 -7 18 -5 13 8 -5 13 -1 17 17 17 12 0 25 -3 29 -6 9 -9 -4 -35 -14 -28 -5
3 -9 0 -9 -5 0 -14 13 -14 26 -1 6 6 24 12 41 14 56 8 228 112 254 156 10 16
23 30 29 30 5 0 7 7 3 16 -4 10 -1 14 8 13 8 -2 25 3 38 10 l23 13 -25 26
c-16 18 -25 39 -25 64 -1 35 0 37 41 44 60 12 59 12 63 -20 2 -16 7 -33 12
-38 15 -15 75 -10 127 10 47 19 51 24 78 88 29 71 34 108 24 181 -5 35 -1 53
28 111 33 68 34 70 20 117 -8 26 -13 51 -10 55 3 5 -1 14 -8 22 -38 40 -57 74
-57 104 0 44 -16 83 -47 116 l-26 27 5 243 c2 134 2 251 0 261 -3 14 -10 16
-43 11 -27 -5 -46 -2 -63 10 -14 9 -34 16 -44 16 -11 0 -25 7 -33 16 -7 9 -30
23 -51 31 -21 8 -43 24 -49 34 -10 20 -49 26 -49 8 0 -8 -16 -10 -50 -5 -34 5
-60 2 -86 -9 -20 -8 -49 -15 -65 -15 -16 0 -43 -9 -61 -20 -42 -25 -60 -25
-83 0 -10 11 -23 20 -29 20 -7 0 -29 9 -51 20 -22 11 -41 20 -43 20 -1 0 -10
-16 -18 -36 -12 -27 -20 -35 -37 -32 -16 2 -23 11 -25 31 -3 23 -7 28 -23 23
-10 -3 -27 -9 -38 -12 -12 -4 -26 2 -39 16 -19 20 -21 21 -57 6 -20 -9 -42
-13 -49 -9 -28 15 -56 48 -56 65 0 13 -8 18 -30 18 -16 0 -30 -4 -30 -10 0
-14 -31 -12 -49 3 -14 12 -85 31 -146 40 -11 1 -26 15 -33 30 -7 15 -17 27
-23 27 -5 0 -9 7 -9 16 0 12 -6 15 -24 10 -36 -9 -115 9 -131 30 -7 11 -19 19
-27 19 -15 0 -15 -3 6 356 9 140 16 267 16 281 l0 25 -197 7 c-179 6 -372 17
-539 31 l-61 5 -6 -62z"/>
<path d="M9045 4312 c-66 -1 -289 -6 -495 -10 l-375 -7 3 -45 c2 -25 11 -92
19 -150 13 -83 16 -173 15 -432 -2 -321 -2 -327 18 -333 11 -4 34 -4 51 0 50
11 59 -5 59 -108 l0 -90 242 6 c133 4 307 7 387 7 146 0 146 0 158 25 6 14 7
25 2 25 -14 0 -11 27 6 44 20 19 5 61 -25 69 -12 3 -19 10 -16 16 4 6 13 8 21
5 12 -5 14 0 9 25 -5 22 -2 32 9 37 17 6 17 28 -1 46 -15 15 -15 29 0 25 7 -1
12 4 13 11 0 8 8 20 19 27 10 8 15 18 12 23 -3 6 0 13 6 15 10 4 10 8 -1 15
-12 8 -6 18 30 51 24 22 50 41 57 41 19 0 20 83 1 107 -7 8 -4 13 10 18 12 3
21 11 21 16 0 5 7 9 15 9 8 0 15 7 15 15 0 9 10 29 21 44 12 16 18 34 15 40
-4 6 -2 11 3 11 6 0 11 11 11 25 0 14 7 36 15 49 12 17 13 30 6 49 -11 29 -6
37 25 37 22 0 26 13 11 36 -4 7 1 14 13 17 11 3 20 12 20 20 0 20 -33 30 -70
22 -46 -10 -110 3 -110 23 0 9 19 35 41 58 27 28 40 48 36 58 -7 17 -6 17
-322 8z"/>
<path d="M11690 4104 c-151 -15 -203 -26 -252 -57 -18 -11 -54 -31 -80 -45
-43 -21 -48 -27 -48 -58 0 -19 -4 -34 -10 -34 -5 0 -10 -7 -10 -15 0 -18 72
-65 99 -65 20 0 111 -103 111 -126 0 -8 4 -14 8 -14 5 0 44 -32 86 -71 43 -38
88 -74 101 -79 17 -6 26 -20 30 -44 7 -36 36 -69 70 -80 24 -8 105 -119 105
-144 0 -9 19 -30 41 -46 46 -32 63 -66 54 -108 -5 -23 -2 -33 16 -49 35 -30
46 -23 64 36 9 31 21 55 28 54 26 -3 37 2 37 17 0 8 -4 13 -8 10 -13 -8 -82
13 -82 25 0 17 43 26 82 16 34 -8 41 -6 75 21 47 37 97 92 83 92 -5 0 -10 10
-10 21 0 22 8 22 53 4 13 -5 17 -2 17 14 0 12 6 21 13 21 8 0 19 11 25 25 6
14 16 25 22 25 14 0 29 16 52 52 15 23 15 28 3 38 -21 17 -19 38 5 52 12 7 33
33 47 58 14 25 42 65 62 89 l35 44 -29 23 c-42 33 -200 147 -262 190 -50 35
-54 36 -100 26 -26 -6 -91 -12 -143 -14 l-95 -3 -10 30 c-7 22 -15 29 -30 27
-13 -2 -29 8 -43 28 -26 34 -14 33 -212 14z"/>
<path d="M9435 4030 c3 -5 8 -10 11 -10 2 0 4 5 4 10 0 6 -5 10 -11 10 -5 0
-7 -4 -4 -10z"/>
<path d="M11170 3960 c-25 -5 -137 -18 -250 -30 -275 -29 -253 -22 -245 -73 4
-23 27 -121 50 -217 24 -96 51 -213 60 -260 23 -122 63 -249 89 -290 34 -52
39 -88 21 -163 -12 -52 -13 -80 -5 -129 5 -34 14 -66 18 -70 6 -6 6 -25 1 -46
-8 -38 -5 -48 37 -109 13 -20 24 -45 24 -56 0 -20 4 -20 243 -13 133 3 298 11
367 16 l125 9 38 -37 c20 -20 38 -32 38 -27 1 6 2 43 3 84 l1 75 48 17 c42 15
49 15 62 2 13 -13 15 -13 15 2 0 8 7 27 16 40 15 23 15 25 0 31 -9 3 -16 14
-16 24 0 21 25 44 39 36 5 -4 13 -1 17 5 3 6 1 15 -7 20 -11 6 -9 12 6 29 14
15 20 36 20 70 0 39 5 54 28 77 29 31 36 56 13 47 -8 -3 -25 9 -40 28 -20 27
-24 41 -20 70 8 45 -6 71 -50 92 -27 13 -38 26 -46 55 -5 21 -17 44 -26 52 -8
7 -22 25 -30 41 -8 15 -22 28 -30 28 -25 0 -84 65 -84 92 0 16 -10 30 -31 42
-40 24 -199 168 -199 181 0 17 -81 105 -96 105 -44 0 -120 62 -108 89 4 9 9
28 12 44 4 25 2 27 -29 26 -19 -1 -54 -5 -79 -9z"/>
<path d="M10560 3896 c-3 -2 -115 -12 -250 -21 -135 -9 -263 -18 -286 -21
l-41 -5 -6 -157 c-3 -86 -11 -281 -18 -432 -16 -379 -15 -510 5 -690 10 -85
21 -182 24 -215 8 -68 30 -82 45 -28 6 21 19 36 39 44 34 14 53 1 84 -56 21
-39 23 -40 47 -22 12 8 19 31 22 69 3 51 1 60 -19 76 -25 19 -43 76 -28 86 9
5 414 48 577 61 138 11 131 7 130 73 -1 31 -4 64 -8 72 -3 8 -8 31 -11 50 -3
19 -9 52 -12 74 -5 25 -3 41 5 45 6 4 14 37 17 72 6 59 4 69 -19 105 -35 52
-61 130 -87 261 -12 59 -40 180 -62 268 -22 88 -45 189 -52 225 l-12 65 -40 3
c-22 2 -42 1 -44 -2z"/>
<path d="M12090 3216 c0 -2 7 -7 16 -10 8 -3 12 -2 9 4 -6 10 -25 14 -25 6z"/>
<path d="M11931 2653 c0 -6 -4 -20 -7 -30 -5 -14 -4 -15 5 -7 7 7 11 20 8 30
-3 11 -5 14 -6 7z"/>
<path d="M11807 2603 c-3 -5 0 -37 5 -72 8 -52 7 -66 -5 -79 -21 -21 -61 -8
-86 26 -19 28 -22 29 -77 21 -85 -11 -640 -32 -669 -25 -20 5 -28 17 -37 52
l-13 46 -95 -7 c-128 -8 -579 -54 -607 -61 -13 -4 -23 -8 -23 -11 0 -2 14 -22
32 -44 30 -37 31 -41 22 -92 l-10 -53 32 10 c22 7 30 15 27 27 -6 23 44 31 79
13 32 -16 93 -20 68 -4 -11 7 -8 10 16 10 18 0 47 6 65 14 29 12 37 12 62 0
19 -10 26 -20 23 -32 -5 -13 6 -20 48 -33 52 -15 55 -15 59 3 3 10 11 18 19
18 15 0 58 -36 58 -49 0 -4 11 -13 24 -19 13 -6 34 -30 46 -54 14 -29 32 -48
51 -55 24 -9 29 -9 29 4 0 11 7 14 25 9 19 -5 37 1 71 25 25 17 48 37 51 45 3
8 10 11 15 8 6 -4 5 3 -1 15 -10 17 -9 22 3 27 8 3 19 3 24 0 6 -3 23 1 38 9
74 39 178 -2 234 -92 47 -75 53 -83 69 -83 7 0 24 -10 36 -22 36 -36 53 -48
68 -48 19 0 61 -48 88 -100 25 -48 28 -95 12 -212 l-9 -66 40 -7 c22 -3 48
-13 58 -22 19 -17 24 -48 9 -57 -5 -4 -17 -31 -26 -61 -10 -30 -22 -55 -26
-55 -5 0 9 -26 31 -57 23 -32 51 -74 63 -93 15 -22 32 -36 47 -37 14 -1 19 0
13 3 -15 6 -17 52 -4 72 11 19 22 -8 14 -37 -4 -15 -1 -21 10 -21 10 0 20 -18
28 -51 7 -28 21 -55 30 -60 10 -5 20 -22 24 -38 3 -17 19 -54 35 -84 24 -44
39 -58 81 -77 28 -13 55 -32 60 -42 5 -10 15 -18 23 -18 12 0 56 -68 56 -89 0
-6 9 -20 21 -32 20 -20 25 -20 86 -9 50 10 71 19 91 41 14 16 32 28 40 27 8
-2 17 3 19 10 3 7 -1 10 -9 7 -10 -4 -13 6 -13 39 0 24 3 39 7 33 5 -8 8 -6 8
6 0 9 -4 17 -10 17 -5 0 -10 5 -10 10 0 6 10 10 22 10 21 0 21 1 15 162 l-7
162 -41 86 c-23 47 -52 109 -65 137 -13 29 -45 87 -70 129 -57 94 -119 227
-129 274 -4 19 -26 69 -50 110 -64 111 -121 243 -150 350 -52 191 -50 185 -72
185 -12 0 -25 3 -29 8 -4 4 -24 7 -45 7 -21 0 -40 -3 -42 -7z m133 -28 c0 -8
-2 -15 -4 -15 -2 0 -6 7 -10 15 -3 8 -1 15 4 15 6 0 10 -7 10 -15z"/>
<path d="M10510 2350 c0 -5 5 -10 11 -10 5 0 7 5 4 10 -3 6 -8 10 -11 10 -2 0
-4 -4 -4 -10z"/>
<path d="M10745 2300 c3 -5 11 -10 16 -10 6 0 7 5 4 10 -3 6 -11 10 -16 10 -6
0 -7 -4 -4 -10z"/>
<path d="M9412 2204 c-15 -10 -22 -24 -20 -37 3 -19 9 -22 52 -21 39 0 52 5
67 25 17 22 17 25 2 37 -23 17 -74 15 -101 -4z"/>
<path d="M9655 2170 c-8 -14 3 -30 21 -30 16 0 16 2 8 24 -7 18 -20 21 -29 6z"/>
<path d="M8997 2011 c-19 -33 -22 -51 -7 -51 6 0 10 7 10 15 0 8 9 24 20 35
23 23 25 30 7 30 -7 0 -20 -13 -30 -29z"/>
<path d="M8915 2019 c-4 -6 2 -19 13 -29 17 -16 21 -17 26 -5 3 8 -2 21 -10
30 -18 18 -21 18 -29 4z"/>
<path d="M8094 1968 c0 -9 5 -14 10 -11 5 4 7 -1 3 -9 -8 -22 27 -52 50 -44
17 7 17 8 1 17 -10 6 -18 22 -18 37 0 21 -5 27 -23 27 -15 0 -23 -6 -23 -17z"/>
<path d="M12220 1952 c0 -8 10 -36 22 -63 23 -54 43 -50 27 4 -10 34 -49 81
-49 59z"/>
<path d="M9485 1910 c3 -5 8 -10 11 -10 2 0 4 5 4 10 0 6 -5 10 -11 10 -5 0
-7 -4 -4 -10z"/>
<path d="M9680 1890 c0 -20 39 -31 63 -18 l22 12 -25 7 c-37 10 -60 10 -60 -1z"/>
<path d="M9181 1854 c0 -11 3 -14 6 -6 3 7 2 16 -1 19 -3 4 -6 -2 -5 -13z"/>
<path d="M9760 1840 c0 -5 5 -10 11 -10 5 0 7 5 4 10 -3 6 -8 10 -11 10 -2 0
-4 -4 -4 -10z"/>
<path d="M8043 1823 c-7 -2 -13 -8 -13 -13 0 -10 38 -1 46 11 6 10 -13 11 -33
2z"/>
<path d="M11660 1629 c0 -5 5 -7 10 -4 6 3 10 8 10 11 0 2 -4 4 -10 4 -5 0
-10 -5 -10 -11z"/>
<path d="M11697 1618 c-2 -13 -8 -31 -12 -40 -4 -11 -3 -18 4 -18 6 0 11 7 11
16 0 8 4 12 10 9 12 -7 50 12 50 26 0 6 -4 8 -9 5 -5 -3 -11 1 -15 9 -8 23
-33 18 -39 -7z"/>
<path d="M7455 1440 c-8 -13 -1 -24 14 -19 6 3 7 10 2 18 -6 10 -10 10 -16 1z"/>
<path d="M11870 1235 c0 -25 44 -64 57 -51 3 3 1 6 -6 6 -7 0 -11 6 -8 13 7
19 -11 57 -28 57 -9 0 -15 -9 -15 -25z"/>
<path d="M7285 1200 c-3 -6 1 -7 9 -4 18 7 21 14 7 14 -6 0 -13 -4 -16 -10z"/>
</g>
</svg>
